<svg width="24" height="16" viewBox="0 0 24 16" fill="none" xmlns="http://www.w3.org/2000/svg">
<g clip-path="url(#clip0_17_19053)">
<path d="M0.00012207 0H24.0001V16H0.00012207V0Z" fill="#00318B"/>
<path d="M21.2773 12.4154C21.6487 11.9041 21.8967 11.28 21.8967 10.5244V4.90711C21.411 5.27263 20.8194 5.46988 20.2115 5.46898C19.2927 5.46898 18.4773 5.02781 17.9645 4.3457C17.4522 5.02781 16.6363 5.46898 15.7175 5.46898C15.085 5.46898 14.5016 5.25986 14.0323 4.90757V10.5244C14.0323 11.2804 14.2803 11.9045 14.6518 12.4154H21.2773Z" fill="white"/>
<path d="M14.5138 12.2095C15.5627 13.8927 17.965 14.456 17.965 14.456C17.965 14.456 20.3674 13.8927 21.4162 12.2095H14.5138Z" fill="#8DCCFF"/>
<path d="M18.5572 8.05671C18.5722 8.12314 18.9652 8.5325 19.3787 8.9994C19.4438 9.07285 18.9699 9.59028 19.0555 9.5884C19.2777 9.58279 19.957 8.78092 19.9603 9.89952C19.9626 10.6452 18.5568 11.1865 18.5568 11.1865H19.3741L19.4045 11.8864C19.4045 11.8864 19.637 11.2623 19.7596 11.1112C20.1385 10.6448 20.7037 9.70443 21.3778 9.84338C22.052 9.98232 20.7387 9.19215 20.7387 9.19215C20.7387 9.19215 20.4955 8.4815 19.9607 8.39823C19.4901 8.32478 19.2922 8.2808 18.7144 8.05671C18.6358 8.0263 18.5329 7.94817 18.5572 8.05671Z" fill="#D87B00"/>
<path d="M16.8276 9.29544C16.8777 9.24912 17.0363 8.70456 17.2342 8.11275C17.2655 8.01965 17.9504 8.17216 17.9055 8.09871C17.79 7.90877 16.7556 7.7207 17.7231 7.1593C18.3682 6.78503 19.5392 7.73333 19.5392 7.73333L19.1313 7.02503L19.7226 6.64936C19.7226 6.64936 19.0653 6.7593 18.8739 6.72842C18.2807 6.63298 17.1836 6.6124 16.9675 5.95883C16.7514 5.30526 16.7219 6.83789 16.7219 6.83789C16.7219 6.83789 16.2279 7.40304 16.4225 7.9083C16.5937 8.35275 16.6545 8.54643 16.7486 9.15883C16.7621 9.24257 16.7458 9.37076 16.8276 9.29544Z" fill="#D87B00"/>
<path d="M18.5109 10.2863C18.4459 10.2662 17.8952 10.4028 17.2842 10.5286C17.1879 10.5483 16.9759 9.87927 16.9348 9.95506C16.8286 10.1501 17.1855 11.1392 16.2138 10.5843C15.5663 10.2142 15.7979 8.72559 15.7979 8.72559L15.3904 9.43389L14.7687 9.11108C14.7687 9.11108 15.1939 9.62383 15.2632 9.80535C15.4784 10.3663 16.0117 11.3254 15.5551 11.84C15.0985 12.3551 16.4384 11.6107 16.4384 11.6107C16.4384 11.6107 17.1757 11.7544 17.5144 11.3319C17.8129 10.9604 17.9495 10.8107 18.4318 10.422C18.4987 10.3696 18.6176 10.3195 18.5109 10.2863Z" fill="#D87B00"/>
<path d="M12.0001 0H10.9194L7.4855 2.28772V0H4.49135V2.28772L1.05743 0H0.00012207V1.06199L2.15685 2.49825H0.00012207V5.4924H2.15685L0.00012207 6.92866V8H1.05743L4.49135 5.69825V8H7.4855V5.69825L10.9194 8H12.0001V6.92866L9.82 5.4924H12.0001V2.49825H9.82L12.0001 1.06199V0Z" fill="white"/>
<path d="M6.73696 0H5.23989V3.24678H0.00012207V4.74386H5.23989V8H6.73696V4.74386H12.0001V3.24678H6.73696V0Z" fill="#D80027"/>
<path d="M0.00012207 7.99996V7.47131L2.9241 5.49236H3.98141L0.341643 7.99996H0.00012207ZM0.341643 0.00463867L3.98141 2.49353H2.9241L0.00012207 0.519259V0.00463867H0.341643ZM12.0001 0.00463867V0.519259L9.05275 2.49821H7.99544L11.6352 0.00463867H12.0001ZM11.6352 7.99996L7.99544 5.49236H9.05275L12.0001 7.47131V7.99996H11.6352Z" fill="#D80027"/>
</g>
<defs>
<clipPath id="clip0_17_19053">
<rect width="24" height="16" fill="white"/>
</clipPath>
</defs>
</svg>
