<svg width="24" height="16" viewBox="0 0 24 16" fill="none" xmlns="http://www.w3.org/2000/svg">
<g clip-path="url(#clip0_17_19097)">
<path d="M0 0.000244141H24V16.0002H0V0.000244141Z" fill="#EF3340"/>
<path d="M0 0.000244141H24V5.33358H0V0.000244141Z" fill="#00B5E2"/>
<path d="M0 10.6672H24V16.0006H0V10.6672Z" fill="#509E2F"/>
<path d="M12.4251 9.94748C11.3491 9.94748 10.4789 9.0773 10.4789 8.00128C10.4789 6.92526 11.3491 6.05508 12.4251 6.05508C12.762 6.05508 13.0754 6.13929 13.3514 6.289C12.921 5.86794 12.3269 5.60596 11.6766 5.60596C10.3526 5.60596 9.28125 6.6773 9.28125 8.00128C9.28125 9.32526 10.3526 10.3966 11.6766 10.3966C12.3269 10.3966 12.921 10.1346 13.3514 9.71356C13.0754 9.86327 12.762 9.94748 12.4251 9.94748Z" fill="white"/>
<path d="M13.9216 6.65381L14.1789 7.37895L14.876 7.04679L14.5438 7.74387L15.269 8.00118L14.5438 8.25849L14.876 8.95556L14.1789 8.6234L13.9216 9.34855L13.6643 8.6234L12.9672 8.95556L13.2994 8.25849L12.5742 8.00118L13.2994 7.74387L12.9672 7.04679L13.6643 7.37895L13.9216 6.65381Z" fill="white"/>
</g>
<defs>
<clipPath id="clip0_17_19097">
<rect width="24" height="16" fill="white"/>
</clipPath>
</defs>
</svg>
