<svg width="24" height="16" viewBox="0 0 24 16" fill="none" xmlns="http://www.w3.org/2000/svg">
<g clip-path="url(#clip0_17_19065)">
<path d="M0.00012207 8H24.0001V16H0.00012207V8Z" fill="black"/>
<path d="M0.00012207 0H24.0001V8H0.00012207V0Z" fill="#D80027"/>
<path d="M15.5649 6.34383L16.3836 5.94149L16.0374 5.0526L15.1625 5.34266L15.5649 6.34383ZM13.4315 3.72394L13.6888 2.84441L12.7953 2.50757L12.421 3.34967L13.4315 3.72394ZM14.807 4.80932L15.3777 4.09353L14.6807 3.44324L14.0163 4.0795L14.807 4.80932ZM15.7146 8.03271L16.6269 7.99529V6.9988L15.5555 7.00815L15.7146 8.03271ZM15.1251 9.81517L16.0046 10.0725L16.3462 9.18359L15.504 8.80932L15.1251 9.81517ZM13.7684 11.331L14.4655 11.9251L15.1391 11.2514L14.5263 10.5637L13.7684 11.331ZM11.5695 4.42102L12.028 5.35201L13.0526 5.5064L12.3087 6.23154L12.4771 7.25611L11.5602 6.76956L10.6386 7.24675L10.8163 6.22219L10.0771 5.49704L11.1064 5.35201L11.5695 4.42102Z" fill="#FFDA44"/>
<path d="M11.7334 2.86768L11.607 3.72382C13.6234 3.87352 15.2094 5.55773 15.2094 7.61154C15.2094 9.76358 13.4643 11.4899 11.3076 11.5133C9.94154 11.5273 8.90762 10.8209 8.17312 9.93668L7.52283 10.5121C8.22458 11.401 9.4316 12.3788 11.3076 12.3788C13.9415 12.3788 16.0749 10.2455 16.0749 7.61154C16.0796 5.12265 14.1708 3.0782 11.7334 2.86768Z" fill="#FFDA44"/>
<path d="M13.6562 10.4514L13.1041 11.1064C13.1041 11.1064 15.5322 12.9263 15.6117 12.9964C15.6913 13.0666 15.855 13.09 16.0375 12.8701C16.2106 12.6596 16.1685 12.4912 16.0796 12.4163C15.986 12.3462 13.6562 10.4514 13.6562 10.4514Z" fill="black"/>
<path d="M9.64207 7.35425C9.28184 7.83612 9.29119 8.43495 9.77306 8.79986C9.77306 8.79986 16.0982 13.5484 16.1777 13.6186C16.2573 13.6888 16.421 13.7121 16.6035 13.4923C16.7766 13.2817 16.7345 13.1133 16.6456 13.0385C16.5567 12.9683 9.64207 7.35425 9.64207 7.35425ZM11.8736 11.9905L12.2152 12.842L13.1275 12.5613L12.9029 11.6677L11.8736 11.9905ZM9.98359 11.8174L9.89002 12.7297L10.8304 12.8981L11.0409 12.0045L9.98359 11.8174ZM8.31341 10.8256L7.83154 11.6022L8.59879 12.1683L9.18359 11.4572L8.31341 10.8256Z" fill="#FFDA44"/>
</g>
<defs>
<clipPath id="clip0_17_19065">
<rect width="24" height="16" fill="white"/>
</clipPath>
</defs>
</svg>
