<svg width="24" height="16" viewBox="0 0 24 16" fill="none" xmlns="http://www.w3.org/2000/svg">
<g clip-path="url(#clip0_17_19033)">
<path d="M0.00012207 0H24.0001V16H0.00012207V0Z" fill="#FFDA44"/>
<path d="M0.00012207 0H8.00012V16H0.00012207V0Z" fill="#0052B4"/>
<path d="M16 0H24V16H16V0ZM9.3053 5.31462H11.9766V8.3462H9.3053V5.31462Z" fill="#D80027"/>
<path d="M12.5193 5.3147V8.3416V5.3147ZM13.2959 5.3147V8.3416V5.3147ZM14.0725 5.3147V8.3416V5.3147Z" fill="black"/>
<path fill-rule="evenodd" clip-rule="evenodd" d="M12.6831 5.3147V8.3416H12.3556V5.3147H12.6831ZM13.4597 5.3147V8.3416H13.1322V5.3147H13.4597ZM13.9088 8.3416V5.3147H14.2363V8.3416H13.9088Z" fill="#D80027"/>
<path d="M11.5742 8.34644V11.3733V8.34644ZM10.952 8.34644V11.3733V8.34644ZM10.3298 8.35111V10.8728V8.35111ZM9.68884 8.35111V10.5546V8.35111Z" fill="black"/>
<path fill-rule="evenodd" clip-rule="evenodd" d="M11.069 8.34644V11.3733H10.8351V8.34644H11.069ZM11.6912 8.34644V11.3733H11.4573V8.34644H11.6912ZM9.5719 10.5546V8.35111H9.80582V10.5546H9.5719ZM10.4468 8.35111V10.8728H10.2128V8.35111H10.4468Z" fill="#D80027"/>
<path d="M9.35217 6.83049L10.6434 5.3147L11.9767 6.82581L10.6621 8.3416L9.35217 6.83049Z" fill="#FFDA44"/>
<path d="M8.52405 4.48657V8.80002C8.52405 10.4047 9.80124 11.3357 10.7977 11.8176C10.7603 11.8831 11.972 12.2059 11.972 12.2059C11.972 12.2059 13.1837 11.8831 13.1463 11.8176C14.1474 11.3357 15.42 10.4094 15.42 8.80002V4.48657H8.52405ZM14.6012 8.80002C14.6012 9.59067 14.1334 10.1755 13.0667 10.8538C12.6644 11.1111 12.248 11.2749 11.9767 11.3684C11.7053 11.2749 11.289 11.1111 10.8866 10.8538C9.81995 10.1755 9.35212 9.54388 9.35212 8.80002V5.31464H14.6012V8.80002Z" fill="#BC8B00"/>
<path d="M12.3696 8.8374H13.7497V9.23974H12.3696V8.8374ZM12.3696 9.66079H13.7497V10.0631H12.3696V9.66079Z" fill="#D80027"/>
</g>
<defs>
<clipPath id="clip0_17_19033">
<rect width="24" height="16" fill="white"/>
</clipPath>
</defs>
</svg>
