<svg width="24" height="16" viewBox="0 0 24 16" fill="none" xmlns="http://www.w3.org/2000/svg">
<g clip-path="url(#clip0_17_19101)">
<path d="M0 0H24.0047V16H0V0Z" fill="#10338C"/>
<path d="M4.67371 0H20.6737V16" fill="#F6C500"/>
<path d="M0.93103 0.987135L1.88542 0.290058L2.84916 0.982456L2.52635 0H1.24916L0.93103 0.987135Z" fill="white"/>
<path d="M4.31815 1.19295L3.94856 0.060791L3.58365 1.19295H2.40002L3.35909 1.88535L2.99418 3.00816L3.94856 2.31576L4.91231 3.00816L4.54271 1.88535L5.50178 1.18828L4.31815 1.19295Z" fill="white"/>
<path d="M6.37667 3.23731L6.01176 2.1145L5.64684 3.23731H4.4679L5.42228 3.93439L5.05737 5.05719L6.01176 4.36479L6.9755 5.05719L6.61059 3.93439L7.56497 3.23731H6.37667Z" fill="white"/>
<path d="M8.39294 5.25371L8.02803 4.12622L7.66312 5.25371H6.47949L7.43856 5.95078L7.07364 7.07359L8.02803 6.38119L8.99177 7.07359L8.62218 5.95078L9.58125 5.24903L8.39294 5.25371Z" fill="white"/>
<path d="M10.4093 7.26563L10.0444 6.14282L9.67951 7.26563H8.49121L9.45495 7.96738L9.09004 9.09019L10.0444 8.39311L10.9988 9.09019L10.6339 7.96738L11.5976 7.26563H10.4093Z" fill="white"/>
<path d="M12.4257 9.28199L12.0608 8.15918L11.6959 9.28199H10.5076L11.4713 9.97906L11.1064 11.1065L12.0608 10.4095L13.0152 11.1065L12.6503 9.97438L13.6093 9.28199H12.4257Z" fill="white"/>
<path d="M14.4422 11.2983L14.0726 10.1755L13.7077 11.2983H12.524L13.4831 11.9907L13.1135 13.1229L14.0773 12.4258L15.0316 13.1182L14.6667 11.9907L15.6258 11.2983H14.4422Z" fill="white"/>
<path d="M16.4539 13.3145L16.0889 12.1824L15.724 13.3145H14.5404L15.4948 14.0069L15.1299 15.1344L16.0889 14.4373L17.048 15.1344L16.6831 14.0069L17.6375 13.3145H16.4539Z" fill="white"/>
<path d="M18.1053 14.1987L17.7358 15.3262L16.5521 15.3309L17.4784 15.9999H18.7229L19.6539 15.3262H18.4703L18.1053 14.1987Z" fill="white"/>
</g>
<defs>
<clipPath id="clip0_17_19101">
<rect width="24" height="16" fill="white"/>
</clipPath>
</defs>
</svg>
