<svg width="24" height="16" viewBox="0 0 24 16" fill="none" xmlns="http://www.w3.org/2000/svg">
<g clip-path="url(#clip0_17_19049)">
<path d="M0 0H24V16H0V0Z" fill="black"/>
<path d="M4.15443 6.38599C4.0515 6.9895 3.99536 7.61172 3.99536 8.24797C3.99536 8.88423 4.0515 9.51113 4.15443 10.11L11.9766 10.6807L19.7989 10.1146C19.9018 9.51113 19.9579 8.88891 19.9579 8.25265C19.9579 7.6164 19.9018 6.9895 19.7989 6.39066" fill="#0072C6"/>
<path d="M19.799 10.2456H4.15454C4.89372 13.5111 8.11711 15.9672 11.9768 15.9672C15.8364 15.9672 19.0598 13.5111 19.799 10.2456Z" fill="white"/>
<path d="M17.1182 6.38596H6.83521L8.93579 5.39883L7.81766 3.36374L10.1007 3.8035L10.3861 1.49707L11.9767 3.19064L13.5674 1.49707L13.8527 3.8035L16.1358 3.36374L15.0177 5.39883L17.1182 6.38596Z" fill="#FFDA44"/>
<path d="M12.0002 16L0.000244141 0V16H12.0002Z" fill="#CE1126"/>
<path d="M24.0002 16V0L11.9768 16H24.0002Z" fill="#CE1126"/>
</g>
<defs>
<clipPath id="clip0_17_19049">
<rect width="24" height="16" fill="white"/>
</clipPath>
</defs>
</svg>
