<svg width="24" height="16" viewBox="0 0 24 16" fill="none" xmlns="http://www.w3.org/2000/svg">
<g clip-path="url(#clip0_24_667)">
<path d="M0 0.000244141H24V16.0002H0V0.000244141Z" fill="#0052B4"/>
<path d="M20.5895 8.4729C20.5848 10.3068 20.2901 12.2811 17.9041 13.2214C15.5135 12.2811 15.2234 10.3068 15.2188 8.4729H20.5895Z" fill="white"/>
<path d="M20.565 9.24927C20.434 10.882 19.9849 12.4025 17.8983 13.2259C15.8211 12.4025 15.3486 10.8306 15.2363 9.25395" fill="#29DBFF"/>
<path d="M20.4817 10.0168C20.332 11.1537 19.7004 12.5198 17.9039 13.2262C16.1075 12.5198 15.5414 11.2379 15.3262 10.0262" fill="white"/>
<path d="M20.3125 10.7752C20.0458 11.6033 19.4096 12.6185 17.9125 13.2454C16.4154 12.6559 15.7979 11.6641 15.5078 10.7659" fill="#29DBFF"/>
<path d="M19.9627 11.5516C19.6586 12.0802 19.1346 12.7399 17.9042 13.2311C16.6176 12.6931 16.1545 12.0475 15.8457 11.5422" fill="white"/>
<path d="M19.2919 12.4026C18.9129 12.7394 18.7305 12.9266 17.9071 13.24C16.9667 12.8704 16.8498 12.6973 16.541 12.4213" fill="#29DBFF"/>
<path d="M17.9314 10.8359C17.922 10.8265 16.6261 12.5061 16.6261 12.5061C16.5419 12.4453 16.1583 12.0616 16.0039 11.8043L17.9361 9.46046L19.8168 11.7856C19.6343 12.0897 19.2834 12.4219 19.1992 12.4874L17.9314 10.8359ZM17.8986 3.99146L16.6589 6.09672H19.1384L17.8986 3.99146Z" fill="#5CC85C"/>
<path d="M14.3626 10.659C14.5312 9.41202 14.342 8.3571 13.94 8.30275C13.538 8.24839 13.0754 9.21519 12.9068 10.4622C12.7382 11.7091 12.9274 12.764 13.3294 12.8184C13.7314 12.8727 14.194 11.9059 14.3626 10.659Z" fill="#F7A226"/>
<path d="M14.4933 7.83058C14.6061 7.55009 14.5575 7.26646 14.3849 7.19707C14.2123 7.12768 13.981 7.29881 13.8682 7.57929C13.7555 7.85978 13.804 8.14341 13.9766 8.2128C14.1492 8.28219 14.3805 8.11107 14.4933 7.83058Z" fill="#DDC7AB"/>
<path d="M13.7982 12.7336C13.8406 12.4421 13.8065 12.1959 13.7221 12.1836C13.6377 12.1714 13.535 12.3977 13.4927 12.6892C13.4503 12.9807 13.4844 13.227 13.5688 13.2392C13.6532 13.2515 13.7559 13.0251 13.7982 12.7336Z" fill="#DDC7AB"/>
<path d="M14.0433 13.1184C14.1284 13.1138 14.1851 12.8801 14.1699 12.5962C14.1547 12.3124 14.0733 12.086 13.9882 12.0906C13.903 12.0952 13.8463 12.329 13.8615 12.6128C13.8767 12.8966 13.9581 13.123 14.0433 13.1184Z" fill="#DDC7AB"/>
<path d="M14.9494 10.0052C15.048 9.96637 15.0226 9.66792 14.8928 9.33861C14.7629 9.0093 14.5778 8.77384 14.4792 8.8127C14.3807 8.85156 14.406 9.15001 14.5359 9.47932C14.6657 9.80863 14.8509 10.0441 14.9494 10.0052Z" fill="#DDC7AB"/>
<path d="M14.9245 8.51169C15.2538 8.38185 15.4892 8.19671 15.4504 8.09815C15.4115 7.9996 15.1131 8.02496 14.7838 8.1548C14.4545 8.28464 14.219 8.46978 14.2579 8.56834C14.2967 8.66689 14.5952 8.64153 14.9245 8.51169Z" fill="#DDC7AB"/>
<path d="M22.4615 12.8276C22.8635 12.7733 23.0527 11.7184 22.8841 10.4714C22.7155 9.22443 22.253 8.25763 21.851 8.31199C21.449 8.36634 21.2598 9.42126 21.4284 10.6682C21.597 11.9152 22.0595 12.882 22.4615 12.8276Z" fill="#F7A226"/>
<path d="M21.8185 8.22431C21.9911 8.15492 22.0397 7.87129 21.9269 7.59081C21.8141 7.31032 21.5828 7.13919 21.4102 7.20858C21.2376 7.27798 21.1891 7.56161 21.3018 7.84209C21.4146 8.12258 21.6459 8.29371 21.8185 8.22431Z" fill="#DDC7AB"/>
<path d="M22.2222 13.2475C22.3066 13.2352 22.3407 12.989 22.2983 12.6975C22.2559 12.406 22.1532 12.1796 22.0688 12.1919C21.9844 12.2042 21.9504 12.4504 21.9927 12.7419C22.0351 13.0334 22.1378 13.2597 22.2222 13.2475Z" fill="#DDC7AB"/>
<path d="M21.9296 12.621C21.9449 12.3372 21.8882 12.1034 21.803 12.0989C21.7179 12.0943 21.6365 12.3207 21.6213 12.6045C21.6061 12.8883 21.6628 13.1221 21.7479 13.1267C21.8331 13.1312 21.9144 12.9049 21.9296 12.621Z" fill="#DDC7AB"/>
<path d="M21.2541 9.48317C21.3839 9.15386 21.4093 8.8554 21.3107 8.81655C21.2122 8.77769 21.027 9.01315 20.8972 9.34246C20.7674 9.67176 20.742 9.97022 20.8406 10.0091C20.9391 10.0479 21.1243 9.81248 21.2541 9.48317Z" fill="#DDC7AB"/>
<path d="M21.5363 8.57519C21.5752 8.47663 21.3397 8.29149 21.0104 8.16165C20.6811 8.03181 20.3826 8.00645 20.3438 8.105C20.3049 8.20355 20.5404 8.3887 20.8697 8.51854C21.199 8.64838 21.4975 8.67374 21.5363 8.57519Z" fill="#DDC7AB"/>
<path d="M17.4629 6.09692L16.6582 7.25248L17.491 8.47353H18.5249L18.7448 7.28523L18.4921 6.09692H17.4629Z" fill="#B0C6CC"/>
<path d="M11.9766 0.000244141V5.49264H9.81988L11.9766 6.9289V7.98621H10.9193L7.48538 5.69849V7.98621H4.49123V5.69849L1.05731 7.98621H0V6.9289L2.15673 5.49264H0V2.49849H2.15673L0 1.06223V0.000244141H1.05731L4.49123 2.28796V0.000244141H7.48538V2.28796L10.9193 0.000244141H11.9766Z" fill="white"/>
<path d="M6.73684 0.000244141H5.23977V3.24703H0V4.7441H5.23977V7.98621H6.73684V4.7441H11.9766V3.24703H6.73684V0.000244141Z" fill="#D80027"/>
<path d="M11.9751 1.06274V2.499H9.81836L11.9751 1.06274Z" fill="#2E52B2"/>
<path d="M-6.10352e-05 7.98722V7.4726L2.92392 5.49365H3.98123L0.341459 7.98722H-6.10352e-05Z" fill="#D80027"/>
<path d="M0.34152 0.00512695L3.98129 2.49402H2.92398L0 0.519747V0.00512695H0.34152ZM11.9766 0.00512695V0.519747L9.05263 2.49869H7.99532L11.6351 0.00512695H11.9766ZM11.6351 7.98641L7.99532 5.49285H9.05263L11.9766 7.47179V7.98641H11.6351Z" fill="#D80027"/>
</g>
<defs>
<clipPath id="clip0_24_667">
<rect width="24" height="16" fill="white"/>
</clipPath>
</defs>
</svg>
