<svg width="24" height="16" viewBox="0 0 24 16" fill="none" xmlns="http://www.w3.org/2000/svg">
<g clip-path="url(#clip0_17_19057)">
<path d="M0.00012207 0H24.0001V16H0.00012207V0Z" fill="#ED2024"/>
<path d="M8.66675 3.25336V7.52002L10.5601 8.18669L9.22675 9.49336L9.86675 10.2934L11.2801 8.82669L11.6001 9.44002L10.8001 10.7467L11.7601 12.24L11.2801 12.9334L12.0267 13.8934L12.7467 12.9067L12.3467 12.2134L13.1467 10.6667L12.4267 9.44002L12.7467 8.82669L14.1334 10.2934L14.8001 9.52002L13.4134 8.16002L15.3334 7.46669V3.25336L13.9467 3.76002L13.9201 4.77336L13.0401 4.85336V4.16002L13.4934 3.54669L14.9867 2.96002L14.3734 2.85336L14.7467 2.53336L14.9867 2.64002L14.7734 2.26669L14.4001 2.40002L14.1334 2.10669L12.6667 2.40002L13.0401 2.69336L12.0267 4.00002L11.0134 2.72002L11.3601 2.42669L10.0267 2.10669L9.65341 2.40002L9.25341 2.29336L9.04008 2.66669L9.28008 2.50669L9.70675 2.80002L9.09341 2.93336L10.5601 3.46669L10.9867 4.08002V4.85336L10.1067 4.77336V3.81336L8.66675 3.25336Z" fill="#212121"/>
<path d="M6.98682 6.66672H8.69348V7.33339H6.98682V6.66672ZM6.98682 5.57339H8.69348V6.29339H6.98682V5.57339ZM6.98682 4.45339H8.69348V5.14672H6.98682V4.45339ZM6.98682 3.38672H8.69348V4.05339H6.98682V3.38672Z" fill="#212121"/>
<path d="M15.3066 6.66672H17.0133V7.33339H15.3066V6.66672ZM15.3066 5.57339H17.0133V6.29339H15.3066V5.57339ZM15.3066 4.45339H17.0133V5.14672H15.3066V4.45339ZM15.3066 3.38672H17.0133V4.05339H15.3066V3.38672Z" fill="#212121"/>
<path d="M14.2401 9.62671H15.9468V10.1334H14.2401V9.62671ZM8.05347 9.62671H9.76013V10.1334H8.05347V9.62671Z" fill="#212121"/>
</g>
<defs>
<clipPath id="clip0_17_19057">
<rect width="24" height="16" fill="white"/>
</clipPath>
</defs>
</svg>
