<svg width="24" height="16" viewBox="0 0 24 16" fill="none" xmlns="http://www.w3.org/2000/svg">
<g clip-path="url(#clip0_17_19073)">
<path d="M0.00012207 0H23.9533V16H0.00012207V0Z" fill="white"/>
<path d="M0.00012207 0H23.9533V5.33333H0.00012207V0ZM0.00012207 10.6667H23.9533V16H0.00012207V10.6667Z" fill="#338AF3"/>
<path d="M12.0001 9.87135C13.0336 9.87135 13.8715 9.03352 13.8715 8.00001C13.8715 6.96649 13.0336 6.12866 12.0001 6.12866C10.9666 6.12866 10.1288 6.96649 10.1288 8.00001C10.1288 9.03352 10.9666 9.87135 12.0001 9.87135Z" fill="#FFDA44"/>
<path fill-rule="evenodd" clip-rule="evenodd" d="M12 6.24564C11.0311 6.24564 10.2456 7.0311 10.2456 8.00002C10.2456 8.96894 11.0311 9.75441 12 9.75441C12.9689 9.75441 13.7544 8.96894 13.7544 8.00002C13.7544 7.0311 12.9689 6.24564 12 6.24564ZM10.0117 8.00002C10.0117 6.90191 10.9019 6.01172 12 6.01172C13.0981 6.01172 13.9883 6.90191 13.9883 8.00002C13.9883 9.09813 13.0981 9.98833 12 9.98833C10.9019 9.98833 10.0117 9.09813 10.0117 8.00002Z" fill="#D6AB00"/>
</g>
<defs>
<clipPath id="clip0_17_19073">
<rect width="24" height="16" fill="white"/>
</clipPath>
</defs>
</svg>
