<svg width="24" height="16" viewBox="0 0 24 16" fill="none" xmlns="http://www.w3.org/2000/svg">
<g clip-path="url(#clip0_17_19105)">
<path d="M0 0H24V16H0V0Z" fill="#FFC726"/>
<path d="M-0.00012207 0H7.99988V16H-0.00012207V0ZM15.9999 0H23.9999V16H15.9999V0Z" fill="#00267F"/>
<path d="M15.2392 4.72605L13.7436 5.30617C13.7117 5.36933 13.4727 5.65892 13.3609 7.78851H12.5632V4.96184L11.9765 3.68091L11.3899 4.94407V7.78851H10.5917C10.4799 5.65845 10.2268 5.33331 10.1955 5.26968L8.71338 4.72559C8.7204 4.74009 9.43385 6.19179 9.43385 8.37518V8.96184H11.3899V12.2868H12.5632V8.96184H14.5192V8.37518C14.5192 7.24629 14.7143 6.31576 14.8785 5.73377C15.0572 5.09892 15.2388 4.72839 15.2406 4.72465L15.2392 4.72605Z" fill="black"/>
</g>
<defs>
<clipPath id="clip0_17_19105">
<rect width="24" height="16" fill="white"/>
</clipPath>
</defs>
</svg>
