<svg width="24" height="16" viewBox="0 0 24 16" fill="none" xmlns="http://www.w3.org/2000/svg">
<g clip-path="url(#clip0_17_19085)">
<path d="M0.00012207 0H24.0001V16H0.00012207V0Z" fill="#10338C"/>
<path d="M10.3954 7.98602C10.4094 7.97199 10.4188 7.95795 10.4328 7.94392C10.4234 7.95795 10.4094 7.97199 10.3954 7.98602ZM8.79537 9.94626L9.30999 11.0176L10.4655 10.7509L9.95093 11.8176L10.8819 12.5568L9.72169 12.8188L9.72637 14.0071L8.79537 13.2632L7.86906 14.0071L7.87374 12.8188L6.7135 12.5568L7.64449 11.8176L7.1252 10.7509L8.28543 11.0176L8.79537 9.94626ZM18.0539 11.2796L18.2971 11.7895L18.8492 11.6632L18.6012 12.1732L19.0457 12.524L18.4936 12.6457V13.2164L18.0539 12.8609L17.6094 13.2164L17.6141 12.6457L17.062 12.524L17.5065 12.1732L17.2585 11.6632L17.8106 11.7895L18.0539 11.2796ZM15.7802 5.85269L16.0234 6.36263L16.5755 6.23632L16.3275 6.74626L16.772 7.09714L16.2199 7.22345V7.78953L15.7802 7.43398L15.3357 7.78953L15.3404 7.22345L14.7837 7.09714L15.2281 6.74626L14.9802 6.23632L15.5322 6.36263L15.7802 5.85269ZM18.0539 2.75562L18.2971 3.26556L18.8492 3.13924L18.6012 3.64918L19.0457 4.00006L18.4936 4.12638V4.69246L18.0539 4.3369L17.6094 4.69246L17.6141 4.12638L17.062 4.00006L17.5065 3.64918L17.2585 3.13924L17.8106 3.26556L18.0539 2.75562ZM20.0422 5.08076L20.2854 5.5907L20.8375 5.46439L20.5895 5.97433L21.034 6.32521L20.4819 6.44684V7.0176L20.0422 6.66205L19.5977 7.0176V6.44684L19.0457 6.32521L19.4901 5.97433L19.2422 5.46439L19.7942 5.5907L20.0422 5.08076ZM18.6199 7.78953L18.8117 8.38369H19.434L18.9287 8.7486L19.1252 9.34275L18.6199 8.97316L18.1147 9.34275L18.3065 8.7486L17.8059 8.38369H18.4281L18.6199 7.78953Z" fill="white"/>
<path d="M11.9206 0V1.43158L9.81064 2.60585H11.9206V5.38012H9.15567L11.9206 6.91462V7.98596H10.6715L7.23286 6.07252V7.98596H4.63169V5.71228L0.5428 7.98596H-0.0560303V6.55439L2.05859 5.38012H-0.0560303V2.60585H2.70888L-0.0560303 1.06667V0H1.19309L4.63169 1.90877V0H7.23286V2.27368L11.3264 0H11.9206Z" fill="white"/>
<path d="M6.68081 0H5.18374V3.24211H-0.0560303V4.73918H5.18374V7.98596H6.68081V4.73918H11.9206V3.24211H6.68081V0Z" fill="#D80027"/>
<path d="M7.23279 5.38013L11.9205 7.98597V7.24679L8.56144 5.38013H7.23279Z" fill="#0052B4"/>
<path d="M7.23279 5.38013L11.9205 7.98597V7.24679L8.56144 5.38013H7.23279Z" fill="white"/>
<path d="M7.23286 5.38013L11.9206 7.98597V7.24679L8.56151 5.38013H7.23286ZM3.30771 5.38013L-0.0560303 7.24679V7.98597L4.63169 5.38013H3.30771Z" fill="#D80027"/>
<path d="M4.63169 2.60585L-0.0560303 0V0.734503L3.30771 2.60585H4.63169Z" fill="#0052B4"/>
<path d="M4.63169 2.60585L-0.0560303 0V0.734503L3.30771 2.60585H4.63169Z" fill="white"/>
<path d="M4.63169 2.60585L-0.0560303 0V0.734503L3.30771 2.60585H4.63169ZM8.56151 2.60585L11.9206 0.734503V0L7.23286 2.60585H8.56151Z" fill="#D80027"/>
</g>
<defs>
<clipPath id="clip0_17_19085">
<rect width="24" height="16" fill="white"/>
</clipPath>
</defs>
</svg>
