<svg width="24" height="16" viewBox="0 0 24 16" fill="none" xmlns="http://www.w3.org/2000/svg">
<g clip-path="url(#clip0_17_19077)">
<path d="M0.00012207 0H24.0001V16H0.00012207V0Z" fill="#10338C"/>
<path d="M24.0001 1.54386L4.4586 8L24.0001 14.5385V15.9687L0.00012207 8L24.0001 0V1.54386Z" fill="#D80027"/>
<path d="M24.0001 13.4354V14.5853L3.82324 8.00006L24.0001 1.40356V2.53386" fill="white"/>
<path d="M22.315 6.55961L21.2909 7.05926L21.1421 6.34254L22.6013 4.94979C22.6013 4.94979 22.1606 3.04803 21.958 2.84546L16.7033 5.45692L16.3833 7.17669L14.8909 8.51423L14.8722 10.1142L16.4764 9.04944L19.6217 8.92499L19.551 10.7079H20.591L21.1477 8.61949L22.6238 7.46815L22.315 6.55961Z" fill="#A2001D"/>
<path d="M14.8721 11.1535L13.8317 10.6338L14.8721 10.114H21.6305V11.1535H14.8721Z" fill="#EFC100"/>
<path fill-rule="evenodd" clip-rule="evenodd" d="M14.8666 10.0908H21.6539V11.1771H14.8666L13.7793 10.634L14.8666 10.0908ZM14.8776 10.1376L13.884 10.634L14.8776 11.1304H21.6071V10.1376H14.8776Z" fill="#231F20"/>
</g>
<defs>
<clipPath id="clip0_17_19077">
<rect width="24" height="16" fill="white"/>
</clipPath>
</defs>
</svg>
