<svg width="24" height="16" viewBox="0 0 24 16" fill="none" xmlns="http://www.w3.org/2000/svg">
<g clip-path="url(#clip0_17_19045)">
<path d="M0.00012207 0H24.0001V16H0.00012207V0Z" fill="black"/>
<path d="M4.15443 6.38599C4.0515 6.9895 3.99536 7.61172 3.99536 8.24797C3.99536 8.88423 4.0515 9.51113 4.15443 10.11L11.9766 10.6807L19.7989 10.1146C19.9018 9.51113 19.9579 8.88891 19.9579 8.25265C19.9579 7.6164 19.9018 6.9895 19.7989 6.39066" fill="#0072C6"/>
<path d="M19.799 10.2456H4.15454C4.89372 13.5111 8.11711 15.9672 11.9768 15.9672C15.8364 15.9672 19.0598 13.5111 19.799 10.2456Z" fill="white"/>
<path d="M17.1181 6.38596H6.83508L8.93567 5.39883L7.81754 3.36374L10.1006 3.8035L10.386 1.49707L11.9766 3.19064L13.5672 1.49707L13.8526 3.8035L16.1357 3.36374L15.0175 5.39883L17.1181 6.38596Z" fill="#FFDA44"/>
<path d="M12.0001 16L0.00012207 0V16H12.0001Z" fill="#CE1126"/>
<path d="M24.0001 16V0L11.9767 16H24.0001Z" fill="#CE1126"/>
</g>
<defs>
<clipPath id="clip0_17_19045">
<rect width="24" height="16" fill="white"/>
</clipPath>
</defs>
</svg>
