<svg width="134" height="140" viewBox="0 0 134 140" fill="none" xmlns="http://www.w3.org/2000/svg">
<path d="M7.05962 52.8001L7.18672 98.2276C7.19335 100.152 7.87136 101.505 8.96692 102.139L3.55188 98.9926C2.45632 98.3579 1.77833 97.005 1.7717 95.0809L1.6446 49.6534C1.63135 45.7815 4.35699 41.0647 7.72437 39.1173L72.7776 1.5599C74.4744 0.581301 76.0113 0.490845 77.1201 1.1357L82.5351 4.28239C81.4259 3.63753 79.8894 3.72798 78.1926 4.70658L13.1394 42.264" fill="#F5F5F5"/>
<path d="M84.4083 40.9168L84.4441 53.6238C84.455 57.496 81.7317 62.2128 78.362 64.1582L13.3092 101.716C9.93945 103.662 7.19859 102.1 7.18728 98.2278L7.05862 52.8007C7.05862 47.8523 10.0833 43.8437 13.1403 42.2662L78.1928 4.708C81.5625 2.7625 84.3038 4.32435 84.3147 8.19663L84.3564 22.9075" fill="white"/>
<path d="M12.0703 52.7854C12.0645 50.712 13.8361 47.6499 15.6471 46.6046L74.9559 12.3632C76.8943 11.2442 79.3178 12.6388 79.3241 14.8771L79.434 53.6373C79.4399 55.7111 77.6682 58.7728 75.8573 59.8185L16.5485 94.0604C14.61 95.1793 12.1865 93.7847 12.1803 91.5464L12.0703 52.7854Z" fill="white"/>
<path d="M20.1049 118.941L13.3311 115.005C11.6675 114.039 10.8355 112.773 10.8324 111.507L10.8125 105.244C10.8156 106.51 11.6508 107.776 13.3144 108.741L52.5888 131.567C55.9395 133.514 61.381 133.514 64.7515 131.567L129.805 94.0096C131.498 93.0342 132.343 91.7515 132.343 90.4688L132.36 96.7255C132.367 98.0082 131.518 99.2944 129.821 100.273L64.7714 137.83C61.4009 139.778 55.9558 139.774 52.6083 137.83L29.2113 124.233" fill="#F5F5F5"/>
<path d="M116.636 79.2893L90.5671 64.1398C87.2192 62.1943 81.7726 62.1943 78.4029 64.1398L13.3504 101.698C9.98066 103.643 9.96506 106.797 13.313 108.742L52.5897 131.567C55.9376 133.513 61.3819 133.514 64.752 131.569L129.804 94.0104C133.174 92.0649 133.192 88.91 129.844 86.9645L125.836 84.6349" fill="white"/>
<path d="M97.9118 105.906L105.744 101.384L95.1741 95.2412L66.9297 111.548L77.5001 117.69L91.7475 109.465" fill="white"/>
<path d="M46.3633 97.9877L54.7769 102.877L63.2451 97.9877L54.8319 93.0986L46.3633 97.9877Z" fill="#F5F5F5"/>
<path d="M37.9531 93.098L46.3663 97.9875L54.8349 93.0984L46.4217 88.209L37.9531 93.098Z" fill="#F5F5F5"/>
<path d="M29.4844 97.9881L37.8976 102.877L46.3658 97.9881L37.9526 93.0986L29.4844 97.9881Z" fill="#F5F5F5"/>
<path d="M54.8321 93.0984L63.2452 97.9875L71.7134 93.0984L63.3002 88.209L54.8321 93.0984Z" fill="#F5F5F5"/>
<path d="M63.3008 88.2094L71.714 93.0988L80.1822 88.2098L71.769 83.3203L63.3008 88.2094Z" fill="#F5F5F5"/>
<path d="M54.8867 83.3198L63.2999 88.2089L71.7681 83.3198L63.3549 78.4307L54.8867 83.3198Z" fill="#F5F5F5"/>
<path d="M46.4219 88.2094L54.8351 93.0988L63.3032 88.2094L54.8901 83.3203L46.4219 88.2094Z" fill="#F5F5F5"/>
<path d="M80.1836 88.2098L88.5968 93.0988L97.0654 88.2098L88.6522 83.3203L80.1836 88.2098Z" fill="#F5F5F5"/>
<path d="M46.3086 107.766L54.7218 112.656L63.1904 107.767L80.1267 97.9881L88.5949 93.099L80.1817 88.21L71.7135 93.099L63.2453 97.9881L54.7772 102.877L46.3086 107.766Z" fill="#F5F5F5"/>
<path d="M37.8946 102.876L46.3077 107.765L54.7763 102.876L46.3627 97.9873L37.8946 102.876Z" fill="#F5F5F5"/>
<path d="M37.8477 112.65L46.2613 117.539L54.7205 112.655L46.3073 107.766L37.8477 112.65Z" fill="#F5F5F5"/>
<path d="M29.4375 107.761L37.8507 112.65L46.3103 107.766L37.8971 102.877L29.4375 107.761Z" fill="#F5F5F5"/>
<path d="M21.0235 102.871L29.4367 107.76L37.8963 102.876L29.4831 97.9873L21.0235 102.871Z" fill="#F5F5F5"/>
<path d="M71.7696 83.3198L80.1827 88.2092L88.6513 83.3198L80.2377 78.4307L71.7696 83.3198Z" fill="#F5F5F5"/>
<path d="M63.3555 78.431L71.7687 83.3201L80.2368 78.431L71.8236 73.542L63.3555 78.431Z" fill="#F5F5F5"/>
<path d="M88.625 83.3198L97.0382 88.2092L105.506 83.3198L97.0932 78.4307L88.625 83.3198Z" fill="#F5F5F5"/>
<path d="M80.211 78.4305L88.6241 83.3196L97.0923 78.4305L88.6791 73.541L80.211 78.4305Z" fill="#F5F5F5"/>
<path d="M71.7969 73.5414L80.2101 78.4309L88.6783 73.5414L80.2651 68.6523L71.7969 73.5414Z" fill="#F5F5F5"/>
<path d="M24.3164 80.4139L35.2307 61.5286L41.6169 61.9227L50.1685 62.4503L66.4089 34.3213" fill="white"/>
<path d="M66.3913 29.1245C68.5914 27.8543 70.3798 28.8415 70.3868 31.3694C70.3938 33.8974 68.6171 36.9427 66.4171 38.213C64.217 39.4832 62.4567 38.48 62.4493 35.9521C62.4422 33.4241 64.1912 30.3951 66.3913 29.1245Z" fill="#F5F5F5"/>
<path d="M50.0632 57.6313C52.2633 56.3611 54.0516 57.3483 54.0587 59.8763C54.0657 62.4042 52.289 65.4496 50.0889 66.7198C47.8888 67.99 46.1285 66.9868 46.1211 64.4589C46.1141 61.9309 47.8631 58.9015 50.0632 57.6313Z" fill="#F5F5F5"/>
<path d="M35.0866 57.6313C37.2867 56.3611 39.0751 57.3483 39.0821 59.8763C39.0891 62.4042 37.3125 65.4496 35.1124 66.7198C32.9123 67.99 31.152 66.9868 31.1446 64.4589C31.1376 61.9309 32.8866 58.9015 35.0866 57.6313Z" fill="#F5F5F5"/>
<path d="M25.0554 74.5984C27.2555 73.3281 29.0439 74.3153 29.0509 76.8433C29.0579 79.3713 27.2812 82.4166 25.0811 83.6868C22.881 84.9571 21.1207 83.9539 21.1133 81.426C21.1063 78.898 22.8553 75.8686 25.0554 74.5984Z" fill="#F5F5F5"/>
<path d="M47.2325 34.3566C51.5071 31.8887 54.9833 33.8697 54.9973 38.7817C55.0113 43.6938 51.5574 49.691 47.2828 52.1589C43.0214 54.6194 39.5452 52.6233 39.5312 47.7112C39.5175 42.7991 42.9711 36.8172 47.2325 34.3566Z" fill="#F5F5F5"/>
<path d="M106.101 100.762L95.531 94.6187C95.3111 94.4904 95.0335 94.4904 94.8078 94.6187L66.5642 110.925C66.3416 111.053 66.2031 111.291 66.2031 111.548C66.2031 111.806 66.34 112.044 66.5626 112.173L77.133 118.316C77.2445 118.381 77.3697 118.413 77.4952 118.413C77.6192 118.413 77.7447 118.381 77.8558 118.316L92.1024 110.091C92.4479 109.893 92.5664 109.452 92.366 109.106C92.1671 108.76 91.7231 108.638 91.3807 108.843L77.4964 116.857L68.365 111.55L95.1665 96.0776L104.298 101.385L97.5447 105.283C97.1993 105.482 97.0808 105.923 97.2812 106.269C97.4785 106.613 97.9198 106.729 98.2664 106.532L106.099 102.01C106.322 101.882 106.46 101.644 106.46 101.387C106.461 101.129 106.324 100.891 106.101 100.762Z" fill="#333333"/>
<path d="M105.865 83.9451C106.087 83.8169 106.225 83.5786 106.225 83.3221C106.225 83.064 106.089 82.8258 105.866 82.6964C105.533 82.5026 87.9397 72.2788 89.04 72.9182L80.6264 68.0299C80.4065 67.9032 80.1289 67.9001 79.9032 68.0299L71.4358 72.9182C71.4202 72.9272 71.4135 72.9447 71.3991 72.9549C62.5886 78.0416 32.8459 95.2142 20.6618 102.248C20.4392 102.377 20.3008 102.615 20.3008 102.871C20.3008 103.13 20.4377 103.368 20.6603 103.497C66.3954 130.073 6.63906 95.3487 45.8999 118.165C46.0114 118.23 46.1365 118.263 46.2621 118.263C46.386 118.263 46.5116 118.23 46.6231 118.165C46.9139 117.997 106.16 83.774 105.865 83.9451ZM37.8516 111.816L30.8759 107.762C31.1921 107.58 38.3491 103.448 37.8937 103.711L44.8694 107.765C44.5532 107.948 37.3962 112.079 37.8516 111.816ZM30.9223 97.9902L37.9491 93.9335C38.5935 94.3081 45.3357 98.226 44.9232 97.9863L37.8968 102.043C37.0477 101.549 30.587 97.7952 30.9223 97.9902ZM71.8089 74.3845L78.7819 78.4377L71.7699 82.4862C70.9211 81.993 64.4604 78.2389 64.7954 78.4338L71.8089 74.3845ZM39.3362 102.88L46.3623 98.8233C47.0067 99.198 53.7489 103.116 53.3364 102.876L46.3104 106.932C45.6659 106.558 38.9237 102.64 39.3362 102.88ZM54.779 102.044L47.8033 97.9902C48.0953 97.8213 55.2807 93.6738 54.8312 93.9331L61.8057 97.987L54.779 102.044ZM64.7404 88.212L71.7672 84.1553C72.4116 84.5296 79.1538 88.4479 78.7413 88.2081L71.7153 92.2644L64.7404 88.212ZM73.2097 83.3233L80.2221 79.2748L87.1966 83.3272L80.1835 87.3761C79.5394 87.0014 72.7968 83.0835 73.2097 83.3233ZM56.273 93.1011L63.2986 89.0452L70.2731 93.0976L63.2464 97.1542C62.8237 96.9086 55.8301 92.8433 56.273 93.1011ZM88.6357 84.1631L95.6094 88.2163L88.5975 92.2644L81.6229 88.212L88.6357 84.1631ZM63.3547 79.2666C64.1583 79.7333 70.7254 83.5494 70.3289 83.319C70.0365 83.4878 62.8514 87.6354 63.3009 87.3761L62.0689 86.6602L56.3276 83.3229L63.3547 79.2666ZM46.4176 89.0448L53.3922 93.0972L46.3654 97.1539C45.7209 96.7792 38.9787 92.8613 39.3912 93.1011L46.4176 89.0448ZM97.0512 87.3683L90.0782 83.3151L97.0902 79.267L104.065 83.3194L97.0512 87.3683ZM88.638 82.4784L81.6634 78.426L88.6766 74.3771L95.6511 78.4295L88.638 82.4784ZM80.2626 69.4884L87.2372 73.5409L80.2244 77.5898L73.2507 73.5365L80.2626 69.4884ZM54.8862 84.1553C55.3088 84.4009 62.3025 88.4658 61.8596 88.2085L54.8339 92.2644L47.8594 88.212L54.8862 84.1553ZM29.4817 98.8229C30.2852 99.29 36.8523 103.106 36.4558 102.875C36.1396 103.058 28.9826 107.189 29.438 106.927L22.4635 102.874L29.4817 98.8229ZM46.264 116.706L39.2899 112.653C39.6061 112.47 46.7631 108.339 46.3077 108.602L53.2838 112.655L46.264 116.706ZM54.724 111.822C54.0795 111.448 47.3373 107.53 47.7498 107.769L80.1807 89.0452L87.1553 93.0976L54.724 111.822Z" fill="#333333"/>
<path d="M25.44 84.3127C27.8771 82.9075 29.7801 79.6259 29.7716 76.8434C29.768 75.6722 29.4172 74.7384 28.7914 74.1169L32.4333 67.8399C33.4809 68.1877 34.5187 67.8976 35.472 67.3471C37.1602 66.3732 38.5746 64.4955 39.2924 62.5095L45.5925 62.9064C45.4759 63.4319 45.3952 63.9559 45.3967 64.4632C45.4053 67.5167 47.7337 68.914 50.4472 67.3471C52.8828 65.9416 54.7858 62.6604 54.7776 59.8778C54.7745 58.813 54.4848 57.9424 53.9639 57.3237L64.307 39.4505C65.0287 39.5288 65.7815 39.4142 66.7757 38.8399C69.2113 37.4348 71.1143 34.1532 71.1061 31.3706C71.0972 28.2988 68.7259 26.9428 66.0287 28.5023C63.6084 29.8992 61.7171 33.1734 61.7253 35.956C61.7291 37.268 62.1693 38.2746 62.937 38.884L52.7561 56.526C51.8562 56.2289 50.7969 56.3759 49.6998 57.0095C48.1193 57.9218 46.7761 59.6368 46.0283 61.4907L39.6831 61.0926C39.7556 60.6825 39.8028 60.2751 39.8016 59.8782C39.793 56.8274 37.4397 55.441 34.7242 57.0099C32.3038 58.4068 30.4121 61.6814 30.4207 64.4635C30.4238 65.5217 30.7084 66.386 31.2172 67.0048L27.5286 73.4066C26.6794 73.2054 25.6985 73.3918 24.6926 73.9766C22.2722 75.3735 20.3821 78.6465 20.3907 81.4291C20.3997 84.5033 22.7479 85.8722 25.44 84.3127ZM66.7504 29.7511C68.4144 28.7931 69.6566 29.3452 69.6624 31.3734C69.6694 33.6499 68.0499 36.4379 66.0541 37.5912C64.3332 38.5826 63.1744 37.919 63.1686 35.9533C63.1616 33.6768 64.7682 30.8958 66.7504 29.7511ZM50.4219 58.2583C52.0656 57.312 53.328 57.8332 53.3339 59.8805C53.3409 62.157 51.7213 64.9451 49.7256 66.0983C48.0253 67.0793 46.8459 66.4469 46.8401 64.4604C46.833 62.1839 48.4401 59.4029 50.4219 58.2583ZM35.4466 58.2583C37.1106 57.3003 38.3528 57.8524 38.3586 59.8805C38.3657 62.157 36.7461 64.9451 34.7503 66.0983C33.0501 67.0793 31.8707 66.4469 31.8648 64.4604C31.8578 62.1839 33.4649 59.4029 35.4466 58.2583ZM25.4147 75.2254C27.0966 74.2526 28.3224 74.839 28.3282 76.8465C28.3353 79.123 26.7157 81.911 24.7183 83.0643C23.0142 84.046 21.8403 83.4117 21.8344 81.4264C21.8274 79.1495 23.4345 76.3685 25.4147 75.2254Z" fill="#333333"/>
<path d="M47.6461 52.7832C52.1129 50.2049 55.7357 43.9228 55.7216 38.7807C55.7072 33.3586 51.6833 30.9617 46.8737 33.7329C42.4139 36.3069 38.7981 42.5793 38.8126 47.7132C38.8266 53.1411 42.863 55.5474 47.6461 52.7832ZM47.5954 34.9817C51.3889 32.7921 54.2666 34.4253 54.2783 38.7834C54.2923 43.4658 50.9928 49.1846 46.9244 51.5344C43.1476 53.715 40.2672 52.0677 40.2559 47.7101C40.2415 43.0362 43.5344 37.326 47.5954 34.9817Z" fill="#333333"/>
<path d="M74.5934 11.7387L15.2859 45.9798C13.2546 47.151 11.3418 50.4607 11.3477 52.7867L11.4577 91.5496C11.4666 94.3423 14.4897 96.0827 16.9085 94.6846L76.2177 60.4435C78.249 59.2723 80.1617 55.9626 80.1559 53.6366L80.0459 14.8749C80.0366 12.0841 77.0126 10.3386 74.5934 11.7387ZM75.4953 59.1947L16.1861 93.4359C14.7147 94.2776 12.9064 93.2214 12.9006 91.5457L12.7906 52.7839C12.7852 50.9558 14.4086 48.1522 16.0071 47.229L75.3147 12.9878C76.7589 12.1492 78.5959 13.184 78.6018 14.8795L78.7118 53.6398C78.7176 55.4679 77.0938 58.2715 75.4953 59.1947Z" fill="#094B70"/>
<path d="M133.062 90.4687C133.062 90.4667 133.06 90.4655 133.06 90.4632C133.057 88.8744 132.045 87.4108 130.203 86.3414L126.195 84.0115C125.849 83.8099 125.41 83.9257 125.208 84.2735C125.008 84.6173 125.125 85.0599 125.47 85.2603L129.479 87.5901C132.427 89.3021 132.221 91.7798 129.44 93.3865L64.3876 130.943C61.8078 132.432 57.9355 132.688 54.8839 131.748C54.1927 131.535 53.5295 131.281 52.949 130.943L33.3108 119.531L13.6741 108.118C10.8689 106.49 10.7621 104.026 13.7092 102.323L78.7609 64.7655C81.9251 62.9401 87.0575 62.9373 90.2023 64.7655L116.271 79.9142C116.613 80.1099 117.057 79.9973 117.258 79.6522C117.458 79.3083 117.341 78.8658 116.996 78.6654L90.9271 63.5167C88.4237 62.0605 84.8083 61.6546 81.6398 62.2578C83.7283 59.8187 85.1713 56.5051 85.1635 53.6231L85.1284 40.9158C85.1268 40.517 84.804 40.1957 84.4067 40.1957H84.4052C84.0063 40.1973 83.6835 40.5212 83.6851 40.9189L83.7202 53.6262C83.7315 57.2615 81.1645 61.7057 78.0002 63.5342L12.9474 101.092C10.0163 102.777 7.91678 101.488 7.9082 98.2264L7.78032 52.928L7.77994 52.802C7.77994 48.0209 10.7301 44.3222 13.4998 42.8913L78.5527 5.33351C81.3392 3.72799 83.5829 4.7791 83.5919 8.19911L83.634 22.9092C83.6356 23.3081 83.958 23.6297 84.3557 23.6297H84.3572C84.7561 23.6282 85.0789 23.3042 85.0773 22.9065L85.0348 8.1964C85.0294 6.07234 84.2695 4.46916 82.9026 3.66796C82.8995 3.66601 82.8995 3.66211 82.8967 3.66016C82.894 3.65938 82.8913 3.65781 82.8885 3.65625C82.8862 3.65508 82.8846 3.65276 82.8827 3.65159C82.8796 3.65003 82.8761 3.64963 82.8729 3.64807L77.4813 0.512666C76.0871 -0.295163 74.2913 -0.144275 72.4152 0.936859L7.36239 38.4946C3.79616 40.5567 0.906366 45.5651 0.921961 49.6569L1.04868 95.0859C1.05413 97.2131 1.81556 98.8226 3.18832 99.6191L8.60258 102.765C8.60492 102.767 8.60764 102.766 8.60998 102.767C8.6131 102.769 8.61506 102.772 8.61778 102.774C9.20416 103.112 9.86229 103.28 10.5687 103.28C10.6054 103.28 10.6463 103.263 10.6834 103.262C10.3169 103.883 10.0896 104.541 10.088 105.232C10.088 105.236 10.09 105.239 10.09 105.243C10.09 105.245 10.088 105.246 10.088 105.247C10.088 105.247 10.088 105.247 10.088 105.249L10.1079 111.51C10.1122 113.1 11.1255 114.562 12.9649 115.631L19.7395 119.568C20.0806 119.763 20.5247 119.651 20.7263 119.305C20.9263 118.961 20.8093 118.519 20.4639 118.318L13.6893 114.381C12.3123 113.582 11.554 112.562 11.5508 111.506L11.5411 108.327C11.5676 108.353 11.6085 108.372 11.6354 108.397C12.0128 108.745 12.4417 109.074 12.9478 109.368L32.586 120.78L52.2226 132.193C55.6918 134.21 61.0522 134.264 64.6804 132.396C65.636 131.907 129.872 94.8041 130.161 94.6376C130.166 94.6345 130.168 94.631 130.173 94.6279C130.689 94.3292 131.125 93.9947 131.508 93.6407C131.542 93.6095 131.593 93.5853 131.626 93.5537L131.635 96.7309C131.641 97.7992 130.868 98.8366 129.457 99.6499L64.4067 137.208C61.2436 139.034 56.1128 139.034 52.9665 137.208L29.5707 123.611C29.2268 123.412 28.7843 123.526 28.5839 123.873C28.3839 124.217 28.5008 124.659 28.8462 124.86L52.2421 138.456C55.8091 140.528 61.5914 140.501 65.1284 138.456L130.179 100.9C132.057 99.816 133.087 98.3332 133.078 96.7246L133.062 90.4687ZM3.91311 98.3691C3.00118 97.8404 2.49669 96.6736 2.4924 95.0805L2.36568 49.6514C2.35282 46.0189 4.91862 41.5747 8.08444 39.7423L73.1373 2.18564C74.5483 1.3708 75.831 1.22418 76.7569 1.75988L79.5028 3.35566C79.4584 3.36853 79.4104 3.40126 79.3656 3.41529C78.8716 3.56929 78.3683 3.7783 77.856 4.07188C77.847 4.07695 77.8384 4.07809 77.8295 4.08316L12.7766 41.6398C12.7739 41.6414 12.7743 41.6449 12.7716 41.6465C9.66539 43.2684 6.33622 47.4369 6.33622 52.802L6.46293 98.2311C6.46332 98.2642 6.47306 98.2904 6.47345 98.3235C6.48086 98.8698 6.54207 99.377 6.64812 99.848C6.6563 99.8846 6.65278 99.9302 6.66175 99.9661L3.91311 98.3691Z" fill="#094B70"/>
<path d="M48.7807 42.3669C48.4598 42.397 48.0543 42.4854 47.5647 42.632L47.5569 39.8499C48.0801 39.5672 48.578 39.3867 49.0427 39.3029L49.2029 39.2588C49.3293 39.1855 49.4221 39.0837 49.4981 38.943C49.5737 38.7925 49.6154 38.6518 49.615 38.5356C49.6143 38.2935 49.5125 38.1964 49.3269 38.226C48.8115 38.3001 48.2123 38.52 47.5541 38.8611L47.5518 38.0564C47.5514 37.9594 47.5175 37.8919 47.4582 37.8482C47.399 37.8143 47.3229 37.8291 47.2302 37.8829C47.1456 37.9316 47.0699 38.0046 47.011 38.1063C46.9522 38.2178 46.9268 38.32 46.9272 38.4167L46.9296 39.2405C45.7186 40.0378 44.6632 41.4827 44.6671 42.9354C44.6714 44.3222 45.6141 44.2731 46.9432 43.9226L46.9506 46.6076C46.3432 46.9293 45.7689 47.1055 45.2199 47.141L45.0258 47.2046C44.8991 47.2775 44.7981 47.3843 44.7225 47.5254C44.6468 47.6662 44.6051 47.8069 44.6055 47.9426C44.6059 48.0393 44.6312 48.122 44.6909 48.1847L44.894 48.2522C45.5361 48.2019 46.22 47.9917 46.9537 47.6163L46.9561 48.4498C46.9565 48.5562 46.9818 48.6292 47.0411 48.6627C47.1003 48.6869 47.1763 48.6721 47.2609 48.6233C47.3537 48.5699 47.438 48.4919 47.4883 48.3948C47.5471 48.2927 47.5807 48.1863 47.5803 48.0892L47.5779 47.2552C49.1916 46.2224 49.9285 44.7054 49.9254 43.6282C49.9223 42.6562 49.4556 42.3038 48.7807 42.3669ZM45.9346 42.9225C45.7061 42.8601 45.5958 42.6617 45.595 42.3225C45.5927 41.4932 46.2652 40.7369 46.9327 40.2394L46.9401 42.818C46.5007 42.9358 46.1631 42.9751 45.9346 42.9225ZM47.5748 46.2478L47.5678 43.737C48.0407 43.6095 48.3955 43.5604 48.6407 43.5935C48.886 43.6173 49.0045 43.7814 49.0053 44.0918C49.0076 44.8965 48.5281 45.6201 47.5748 46.2478Z" fill="#094B70"/>
</svg>
