<svg width="140" height="140" viewBox="0 0 140 140" fill="none" xmlns="http://www.w3.org/2000/svg">
<path d="M79.2042 5.45508L97.2485 15.3561L81.24 24.5986C80.1494 25.2282 79.259 24.7421 79.2555 23.4889L79.2042 5.45508Z" fill="white"/>
<path d="M81.2384 24.599L97.2469 15.3565L97.4784 96.9882C97.4866 99.8557 95.4598 103.345 92.9639 104.786L34.3085 138.651C31.8129 140.092 29.7913 138.94 29.7831 136.072L29.509 39.3371C29.5007 36.4696 31.5091 32.991 34.0047 31.55L79.2022 5.45508L79.2535 23.4892C79.2578 24.7425 80.1478 25.2286 81.2384 24.599Z" fill="white"/>
<path d="M53.4112 10.8952L71.0542 0.711914L79.219 5.46028L33.9936 31.5474C31.5035 32.995 29.5057 36.4694 29.5057 39.336L29.7955 136.07C29.7955 137.489 30.2878 138.502 31.0984 138.965L22.9336 134.217C22.123 133.753 21.6307 132.74 21.6307 131.321L21.341 34.5873C21.341 31.721 23.3387 28.2467 25.8578 26.7987L37.8492 19.8773" fill="#F5F5F5"/>
<path d="M63.0482 52.9013C77.7581 44.4084 89.7651 51.2511 89.8132 68.154C89.8613 85.069 77.9317 105.732 63.2222 114.224C48.5021 122.723 36.4947 115.88 36.4466 98.9653C36.3985 82.0628 48.3278 61.4001 63.0482 52.9013Z" fill="#F5F5F5"/>
<path d="M63.0741 63.0936C72.8913 57.4255 80.9091 61.9948 80.9411 73.2754C80.9732 84.5673 73.0075 98.3646 63.1902 104.033C53.3635 109.706 45.3454 105.137 45.3137 93.845C45.2813 82.5644 53.247 68.7671 63.0741 63.0936Z" fill="white"/>
<path d="M63.0085 72.1634C68.5224 68.98 73.015 71.5401 73.033 77.876C73.051 84.212 68.5877 91.953 63.0734 95.1368C57.5594 98.3202 53.0582 95.755 53.0402 89.419C53.0223 83.0827 57.4945 75.3469 63.0085 72.1634Z" fill="#F5F5F5"/>
<path d="M97.9608 15.3454C97.9029 15.1718 97.9029 14.882 97.6135 14.7374C97.5846 14.7374 97.5846 14.7374 97.5846 14.7374L79.5756 4.83518L71.4108 0.0868098C71.2082 -0.0289366 70.9185 -0.0289366 70.687 0.0868098L53.0541 10.2784C52.7069 10.4809 52.5907 10.9154 52.7937 11.2626C52.9673 11.6099 53.4307 11.726 53.7779 11.5234L71.0632 1.56336L77.7514 5.44321C77.6646 5.50108 77.5778 5.55934 77.4906 5.58789C77.4038 5.64576 77.317 5.70366 77.1433 5.79047C77.1144 5.81941 77.0855 5.81939 77.0276 5.84833C74.6826 7.20913 65.3592 12.6234 33.6264 30.9219C30.9048 32.5146 28.7913 36.1915 28.7913 39.3475L28.8781 74.4973L29.0517 136.081C29.0517 136.284 29.1096 136.718 29.1385 136.979L23.2902 133.591C22.6822 133.244 22.3635 132.433 22.3635 131.333L22.0737 34.5992C22.0737 31.9644 23.9268 28.7505 26.214 27.4186L38.2007 20.4985C38.548 20.2959 38.6641 19.8615 38.4615 19.5142C38.259 19.1666 37.8246 19.0508 37.4769 19.2534L25.4902 26.1736C22.7686 27.7369 20.6261 31.4432 20.6261 34.5988L20.9159 131.333C20.9159 132.983 21.495 134.228 22.5664 134.836L30.7023 139.584H30.7312V139.613C31.9762 140.308 33.4239 139.99 34.6689 139.266L92.344 105.998L90.8964 105.158L33.9451 138.021C31.8605 139.237 30.5286 138.281 30.5286 136.081L30.3261 74.4969L30.2393 39.3471C30.2103 36.7123 32.0924 33.4985 34.3795 32.1666C66.7493 13.4915 75.8119 8.2798 77.9258 7.03475L78.1573 6.91899C78.1862 6.89006 78.2152 6.8611 78.273 6.83217H78.302C78.3309 6.83217 78.3309 6.80324 78.3309 6.80324C78.447 6.74537 78.447 6.74539 78.447 6.74539C78.447 6.71645 78.476 6.74539 78.476 6.74539L78.5338 23.4805C78.5338 25.3332 80.0683 26.1153 81.6031 25.2175L96.5143 16.6182L96.7458 96.9931C96.7458 97.5144 96.688 98.0932 96.5143 98.6723L97.8173 99.425C98.0777 98.6143 98.1938 97.7748 98.1938 96.9927L97.9608 15.3454ZM80.8781 23.9736C80.27 24.3212 79.9807 24.1761 79.9807 23.4813L79.9228 6.68787L95.76 15.3739L80.8781 23.9736Z" fill="#094B70"/>
<path d="M78.82 98.1531L80.0651 98.848C75.5193 105.565 69.7868 111.269 63.5904 114.859C48.3319 123.661 35.7661 116.423 35.7082 98.9637C35.6793 81.823 47.7528 60.8897 62.6926 52.2905C74.9398 45.1971 84.2917 48.874 88.2005 56.8942C88.3741 57.2418 88.2295 57.6758 87.8822 57.8498C87.535 58.0238 87.0716 57.8788 86.8976 57.5311C83.3365 50.2352 74.8819 46.9052 63.4164 53.5356C48.8817 61.9029 37.1269 82.2864 37.1558 98.9637C37.2137 115.381 48.6502 121.808 62.8663 113.585C68.86 110.14 74.39 104.609 78.82 98.1531Z" fill="#094B70"/>
<path d="M90.5186 68.1565C90.5475 75.6843 88.2315 83.9649 84.3516 91.6088L83.1066 90.885C86.8413 83.5019 89.1 75.4528 89.071 68.1565C89.071 67.7509 89.4182 67.4326 89.7948 67.4326C90.2003 67.4326 90.5186 67.7509 90.5186 68.1565Z" fill="#094B70"/>
<path d="M62.7236 62.4815C52.6768 68.2434 44.5699 82.3437 44.5989 93.8382C44.6278 105.651 53.1981 110.631 63.5632 104.667C66.4295 102.987 69.18 100.642 71.5833 97.8627C71.4675 97.8338 71.3807 97.8048 71.2935 97.7469C70.9463 97.5444 70.6565 97.313 70.425 96.9943C68.1379 99.6001 65.561 101.829 62.8394 103.393C53.3717 108.865 46.0754 104.465 46.0465 93.8386C46.0175 82.7782 53.8061 69.2858 63.4475 63.7269C72.7994 58.3126 80.1825 62.5976 80.2114 73.2815C80.2114 76.669 79.4876 80.2885 78.2137 83.8496C78.5613 83.8786 78.8796 83.9943 79.1983 84.1679C79.314 84.2258 79.4298 84.3126 79.5459 84.3998C80.9067 80.6646 81.6594 76.843 81.6594 73.2815C81.6301 61.4394 73.0598 56.517 62.7236 62.4815Z" fill="#094B70"/>
<path d="M62.6381 71.5442C56.9345 74.8449 52.3019 82.865 52.3019 89.4086C52.3308 96.2704 57.3978 99.2529 63.4201 95.7496C64.6941 95.0258 65.9392 94.0415 67.0685 92.8833L66.1422 91.7829C65.0707 92.8833 63.9125 93.8097 62.6967 94.5045C57.6591 97.4287 53.7792 95.1705 53.7499 89.4086C53.7499 83.3284 58.0638 75.8584 63.3623 72.7892C68.4 69.894 72.2798 72.0943 72.3091 77.8852C72.3091 79.3328 72.0776 80.8387 71.6432 82.3442L73.0329 82.6628C73.5252 81.0416 73.7567 79.42 73.7567 77.8852C73.7274 70.965 68.6608 68.0698 62.6381 71.5442Z" fill="#094B70"/>
<path d="M77.5262 84.4698L63.9304 81.2433C61.6999 80.7139 60.0775 83.3268 61.5411 85.0912L70.682 96.1113L77.5262 84.4698Z" fill="white"/>
<path d="M75.2451 85.137C78.0324 83.5279 80.3199 84.8316 80.3289 88.0342C80.3379 91.2129 78.0652 95.1499 75.278 96.759C72.4696 98.3802 70.182 97.0765 70.173 93.8982C70.1636 90.6952 72.4367 86.7583 75.2451 85.137Z" fill="white"/>
<path d="M109.599 111.744L113.718 123.032L103.18 117.014L95.8839 103.912L109.599 111.744Z" fill="white"/>
<path d="M117.915 111.963C117.464 111.698 116.854 111.725 116.165 112.122C114.813 112.891 113.726 114.827 113.726 116.391C113.726 117.159 113.992 117.69 114.442 117.955L74.0335 94.4981C73.583 94.233 73.3175 93.7028 73.3175 92.9078C73.3175 91.3703 74.405 89.4351 75.7564 88.6663C76.4458 88.2686 77.082 88.242 77.5329 88.4805L117.915 111.963Z" fill="white"/>
<path d="M116.166 112.122C117.537 111.331 118.641 111.979 118.645 113.535C118.649 115.111 117.553 116.991 116.182 117.782C114.828 118.564 113.724 117.954 113.72 116.379C113.715 114.823 114.812 112.904 116.166 112.122Z" fill="white"/>
<path d="M114.495 103.834L110.326 110.347L99.798 104.335L100.77 95.9961L114.495 103.834Z" fill="white"/>
<path d="M118.284 111.321C116.151 110.093 112.358 107.884 112.652 108.053L115.113 104.231C115.229 104.057 115.257 103.854 115.2 103.652C115.171 103.479 115.026 103.305 114.852 103.218L101.128 95.3714C100.926 95.2556 100.665 95.2266 100.462 95.3424C100.23 95.4585 100.086 95.6611 100.057 95.9216L99.5356 100.409L80.8896 89.5809C81.0053 89.0596 81.0632 88.5384 81.0632 88.0464C81.0632 86.2223 80.3972 84.8326 79.2105 84.1666C78.7181 83.9062 78.1969 83.7611 77.6178 83.7611C77.5888 83.7322 77.531 83.7322 77.502 83.7322L64.0966 80.5472C62.7937 80.2289 61.4618 80.779 60.738 81.9369C60.0142 83.0948 60.13 84.5135 60.9985 85.556L70.1479 96.5871L70.7849 97.3688C72.2258 98.5696 74.0222 98.3127 75.6489 97.3977C75.9387 97.2241 76.2281 97.0211 76.5174 96.7896L98.0587 109.298L102.547 117.376C102.604 117.491 102.72 117.578 102.836 117.636L113.375 123.658C113.99 123.966 114.602 123.405 114.417 122.79L112.564 117.723L114.07 118.591C114.907 119.011 115.763 118.864 116.549 118.409C118.138 117.492 119.378 115.35 119.374 113.535C119.372 112.526 118.974 111.719 118.284 111.321ZM101.359 97.1666L113.491 104.087C113.304 104.379 109.886 109.725 110.103 109.385L100.578 103.942C100.638 103.422 101.409 96.7395 101.359 97.1666ZM61.9831 82.6897C62.2435 82.2845 62.7069 81.908 63.3728 81.908C63.4886 81.908 63.6337 81.908 63.7783 81.9369L74.8098 84.5717C71.9435 86.2801 69.627 90.189 69.4823 93.5186L62.0992 84.63C61.5487 83.9352 61.6644 83.182 61.9831 82.6897ZM74.9251 96.1244C73.7954 96.7908 72.3623 97.0852 71.5376 96.0955C71.19 95.6615 70.9585 95.0241 70.9295 94.2424C70.4748 92.4123 72.4554 87.5726 75.62 85.7589C77.7183 84.5025 79.6156 85.2333 79.6156 88.0464C79.6156 88.3069 79.5866 88.5677 79.5577 88.8281L77.8782 87.844C77.1833 87.4678 76.257 87.5545 75.4174 88.0464C73.8537 88.9149 72.609 91.1157 72.609 92.9105C72.609 94.3003 73.275 94.8794 73.6805 95.1403L75.1281 95.9798C75.0698 96.0377 74.983 96.0955 74.9251 96.1244ZM112.362 121.43L103.734 116.479L100.52 110.746L110.596 116.566L112.362 121.43ZM74.4039 93.8662C74.1145 93.6926 74.0566 93.2581 74.0566 92.9105C74.0566 91.6076 75.0119 89.9285 76.1123 89.2915C76.4017 89.1179 76.6914 89.06 76.894 89.06C77.0097 89.06 77.0965 89.06 77.1837 89.1179C93.5446 98.6341 99.699 102.215 99.333 102.002L99.0726 104.26C99.0437 104.55 99.1884 104.81 99.4492 104.955L109.988 110.978C110.075 111.035 110.22 111.064 110.336 111.064C110.567 111.064 110.799 110.948 110.944 110.746L111.871 109.269L115.751 111.527C114.996 111.977 114.322 112.718 113.829 113.572C113.687 113.817 113.599 114.081 113.49 114.34C113.176 115.088 113.009 115.982 113 116.275C76.372 95.0206 74.1122 93.6957 74.4039 93.8662ZM115.826 117.157C113.859 118.301 114.11 115.065 115.869 113.293C116.856 112.32 117.922 112.125 117.927 113.538C117.929 114.84 116.968 116.497 115.826 117.157Z" fill="#333333"/>
<path d="M36.7485 40.7681C36.8729 40.7681 36.9988 40.7372 37.1133 40.6691L46.5513 35.1724C46.8962 34.9718 47.0135 34.5291 46.8113 34.1826C46.6107 33.8362 46.1654 33.7162 45.8217 33.9226L36.3837 39.4194C36.0388 39.62 35.9215 40.0627 36.1236 40.4091C36.2582 40.6394 36.4998 40.7681 36.7485 40.7681Z" fill="#333333"/>
<path d="M55.8618 29.6375C55.9861 29.6375 56.112 29.6062 56.2266 29.5385L73.9463 19.2195C74.2912 19.0189 74.4085 18.5763 74.2063 18.2298C74.0042 17.8833 73.5588 17.7649 73.2166 17.9698L55.497 28.2888C55.1521 28.4894 55.0347 28.932 55.2369 29.2785C55.371 29.5088 55.6127 29.6375 55.8618 29.6375Z" fill="#333333"/>
<path d="M36.7485 50.3689C36.8729 50.3689 36.9988 50.3376 37.1133 50.2699L73.9471 28.822C74.292 28.6214 74.4093 28.1788 74.2071 27.8323C74.005 27.4859 73.5596 27.3674 73.2175 27.5723L36.3837 49.0202C36.0388 49.2208 35.9215 49.6635 36.1236 50.0099C36.2582 50.2402 36.4998 50.3689 36.7485 50.3689Z" fill="#333333"/>
<path d="M62.2903 44.8438C62.0924 44.493 61.6486 44.3687 61.3037 44.5681L36.3937 58.6164C36.0445 58.8131 35.9217 59.2542 36.118 59.6018C36.251 59.838 36.4969 59.971 36.7484 59.971C36.87 59.971 36.9916 59.9413 37.103 59.8775L62.0161 45.8292C62.3638 45.6329 62.4866 45.1918 62.2903 44.8438Z" fill="#333333"/>
<path d="M70.169 40.3992C70.3019 40.6354 70.5479 40.7683 70.7993 40.7683C70.921 40.7683 71.0426 40.7386 71.154 40.6749L90.1715 29.9503C90.5207 29.7536 90.6439 29.3125 90.4472 28.9649C90.2478 28.613 89.8024 28.4941 89.4618 28.6892L70.4443 39.4138C70.0955 39.6105 69.9723 40.0516 70.169 40.3992Z" fill="#333333"/>
</svg>
