<svg width="140" height="140" viewBox="0 0 140 140" fill="none" xmlns="http://www.w3.org/2000/svg">
<path d="M87.924 48.629C84.497 46.643 79.7463 46.9155 74.5088 49.9335C64.0921 55.9497 55.6809 70.5331 55.7003 82.5073C55.7198 88.4459 57.8225 92.632 61.2105 94.5982L52.9747 89.8085C49.5871 87.842 47.4841 83.6559 47.4841 77.7173C47.4451 65.743 55.8563 51.1792 66.273 45.163C71.5106 42.1255 76.2612 41.853 79.6878 43.839L87.924 48.629Z" fill="#F5F5F5"/>
<path d="M87.9006 79.3785C95.278 66.685 95.2983 52.9308 87.9459 48.6577C80.5936 44.3845 68.6528 51.2106 61.2755 63.9041C53.8981 76.5976 53.8778 90.3518 61.2301 94.6249C68.5825 98.898 80.5233 92.072 87.9006 79.3785Z" fill="white"/>
<path d="M88.2489 47.9808C88.2368 47.9738 88.2228 47.9699 88.2103 47.9629L80.0467 43.215C76.2197 40.9962 71.2004 41.4672 65.9075 44.5386C65.5636 44.7386 65.4451 45.18 65.6455 45.5254C65.8471 45.8708 66.2868 45.9835 66.6323 45.7874C71.4585 42.9881 75.9663 42.5171 79.3223 44.4638L83.0406 46.626C83.0125 46.626 82.984 46.626 82.9559 46.626C82.8101 46.626 82.6554 46.6572 82.508 46.6623C80.219 46.7449 77.3569 47.4565 74.1448 49.3084C65.8852 54.0789 59.0437 64.1178 56.3364 73.5505C55.4627 76.5872 54.9703 79.6248 54.9746 82.5106C54.9836 85.2893 55.6354 88.9034 57.0436 91.3417L53.3336 89.1838C50.0239 87.264 48.2013 83.1917 48.2013 77.7155C48.1744 69.5683 52.3016 59.6366 58.7151 52.4141C58.9802 52.1155 58.9517 51.6601 58.6542 51.395C58.3525 51.1314 57.8987 51.1567 57.6351 51.4558C50.8973 59.0447 46.7295 69.109 46.7576 77.7187C46.7576 83.7274 48.8352 88.2438 52.6088 90.4329L60.8223 95.2101C60.8293 95.2144 60.8379 95.2187 60.8449 95.2226C60.8488 95.2245 60.8531 95.2237 60.857 95.2256C60.8648 95.2299 60.871 95.2366 60.8788 95.2409C65.2614 97.7653 70.5727 96.4545 74.9857 93.9059C85.5841 87.7872 94.1781 72.9006 94.1446 60.7208C94.127 54.6832 92.0338 50.1583 88.2489 47.9808ZM74.2648 92.6568C69.4401 95.4393 64.9421 95.9114 61.6001 93.9886C57.7357 91.7647 56.4413 86.9887 56.4284 82.4977C56.4202 79.716 56.8931 76.7876 57.7357 73.86C60.3595 64.7654 66.8443 55.1971 74.8641 50.5653C78.7776 48.3072 83.6472 46.9843 87.5584 49.253H87.5596C90.8587 51.1708 92.6865 55.2415 92.7021 60.7239C92.7356 72.4436 84.4644 86.7677 74.2648 92.6568Z" fill="#094B70"/>
<path d="M75.2268 70.2353L75.2093 63.993C76.3976 63.3719 77.5111 62.968 78.5497 62.7808L78.9084 62.6822C79.1723 62.5298 79.3985 62.2908 79.5677 61.9543C79.7369 61.6397 79.8113 61.336 79.8109 61.0545C79.8094 60.534 79.6008 60.3071 79.1665 60.3843C78.0144 60.55 76.6931 61.0088 75.2026 61.8042L75.1975 60.0049C75.1972 59.7667 75.1398 59.6041 74.9886 59.5394C74.856 59.4642 74.686 59.4755 74.4973 59.5842C74.2899 59.7039 74.139 59.8778 74.0076 60.1059C73.8759 60.334 73.8201 60.5617 73.8209 60.7999L73.8259 62.6206C70.4032 64.9368 68.7412 68.3409 68.7482 70.9145C68.7572 73.9598 70.9869 73.9064 73.8556 73.0892L73.8727 79.1147C72.5144 79.834 71.2305 80.2278 69.9841 80.3179L69.5498 80.4602C69.2858 80.6126 69.0597 80.8516 68.8905 81.1667C68.6648 81.5866 68.4702 82.3059 68.8192 82.6189L69.273 82.7913C70.6898 82.6681 72.2376 82.1865 73.879 81.3694L73.8844 83.2334C73.886 83.7242 74.1757 83.8467 74.5659 83.6217C74.9675 83.3897 75.263 82.9277 75.2615 82.4384L75.2564 80.5744C77.9848 78.8313 80.5139 75.6725 80.5045 72.4642C80.4952 69.1245 78.4347 69.2738 75.2268 70.2353ZM70.8223 69.5218C70.8169 67.6648 72.3452 65.9778 73.8322 64.8748L73.8485 70.6404C72.2099 71.0887 70.8274 71.2186 70.8223 69.5218ZM75.2498 78.3202L75.2338 72.6849C76.7972 72.2868 78.4624 71.8622 78.4667 73.467C78.4717 75.2873 77.3996 76.9053 75.2498 78.3202Z" fill="#094B70"/>
<path d="M111.063 91.6359L104.539 87.8447L108.93 90.3259L115.454 94.1174L111.063 91.6359Z" fill="white"/>
<path d="M96.9535 106.967L90.4293 103.175L91.9736 80.1973L98.4978 83.9888L96.9535 106.967Z" fill="white"/>
<path d="M98.4964 83.9888L91.9723 80.1973L97.1977 83.1962L103.722 86.9877L98.4964 83.9888Z" fill="white"/>
<path d="M115.097 45.9719C115.097 59.1914 112.002 71.0519 105.059 84.4453L103.728 86.9908L97.191 83.2012L98.5216 80.6557C105.464 67.2627 108.559 55.4022 108.559 42.1827C108.704 31.0747 105.175 22.975 98.0589 18.1152L104.596 21.9048C111.683 26.7646 115.241 34.8643 115.097 45.9719Z" fill="#F5F5F5"/>
<path d="M112.235 8.71396C109.255 6.97823 105.784 5.7345 101.821 5.01128C94.4735 3.44943 85.7376 5.561 75.8445 11.2594C75.2947 11.578 74.7743 11.8961 74.1957 12.2431L67.6871 8.45354C68.2368 8.10655 68.7862 7.78838 69.3359 7.46985C79.229 1.77141 87.9649 -0.340546 95.3125 1.22169C99.2463 1.94491 102.718 3.18864 105.726 4.92437L112.235 8.71396Z" fill="#F5F5F5"/>
<path d="M75.8457 11.2708C85.745 5.55519 94.4708 3.45099 101.819 5.01167C118.588 8.08429 126.763 20.349 126.138 41.4991C125.52 58.394 120.904 74.4935 112.381 89.3201L111.056 91.6372L115.447 94.1187L96.9473 106.968L98.4916 83.9901L103.717 86.9891L105.042 84.4385C111.996 71.049 115.089 59.1874 115.089 45.9659C115.224 34.8766 111.686 26.7586 104.587 21.9078C95.4159 17.0207 85.9091 17.5989 75.4188 23.6556L74.237 24.3804L74.2027 12.2412C74.756 11.9 75.2913 11.5905 75.8457 11.2708Z" fill="white"/>
<path d="M74.2417 24.3801L67.7175 20.5886L67.6832 8.44934L74.2074 12.2409L74.2417 24.3801Z" fill="white"/>
<path d="M73.6764 118.897L72.4611 119.62C61.6713 125.84 51.894 126.447 42.4926 121.443L35.984 117.653C45.3854 122.657 55.1627 122.05 65.9237 115.831L67.1674 115.107L73.6764 118.897Z" fill="white"/>
<path d="M34.6527 134.981L28.1153 131.191C18.1352 125.377 13.3624 114.124 13.8544 97.52C14.4907 80.1638 19.2347 63.6463 27.971 48.4018L29.3306 46.0586L35.868 49.8482L34.4796 52.1913C25.7437 67.4359 20.9993 83.9534 20.363 101.31C19.8706 117.914 24.6727 129.166 34.6527 134.981Z" fill="#F5F5F5"/>
<path d="M31.3519 47.2508L24.8277 43.4597L43.826 30.2803L50.3502 34.0714L31.3519 47.2508Z" fill="#F5F5F5"/>
<path d="M50.3511 34.0703L48.753 57.6742L43.3981 54.5802L42.0367 57.2158C34.898 70.9667 31.7135 83.1573 31.7151 96.7399C31.581 108.126 35.1932 116.456 42.4963 121.444C51.9083 126.448 61.6739 125.847 72.4598 119.62L73.6786 118.895L73.7141 131.353C73.1417 131.704 72.569 132.035 72.015 132.355C61.8572 138.22 52.8912 140.378 45.3572 138.776C28.1255 135.63 19.7283 123.026 20.3697 101.314C21.0048 83.9628 25.7496 67.4278 34.4933 52.1972L35.8556 49.8377L31.3529 47.2505L50.3511 34.0703Z" fill="white"/>
<path d="M112.597 8.09999C112.539 8.04229 112.481 8.01343 112.424 7.98458L106.101 4.2897C103.012 2.52863 99.404 1.22958 95.478 0.507917C87.9725 -1.07966 79.0522 1.05649 68.9197 6.88748C68.4 7.20523 67.8806 7.4649 67.3609 7.81111H67.3321C67.1695 7.89259 66.9566 8.20874 66.9566 8.44618V8.47502L67.0143 20.5994C67.0143 20.8595 67.1297 21.0903 67.3605 21.2057L73.8847 25.0163C74.1066 25.1274 74.3647 25.1372 74.6064 25.0163L74.6352 24.9875C75.038 24.8323 86.9261 16.1241 100.183 20.7441C105.408 25.5361 107.949 32.7242 107.833 42.1927C107.833 55.27 104.773 67.0477 97.8738 80.3269L96.8921 82.2034L92.3309 79.5764C91.7434 79.2088 91.2627 79.8552 91.2627 80.2115L89.7039 103.133C89.7039 103.393 89.8193 103.652 90.0794 103.797L96.5459 107.55C96.5459 107.609 97.0644 107.839 97.3541 107.55L115.772 94.7613L115.858 94.7036C116.06 94.559 116.205 94.3282 116.176 94.0974C116.176 93.8373 116.031 93.6065 115.8 93.4911L112.077 91.3261L113.029 89.6808C118.254 80.5585 122.065 70.8592 124.345 60.8417C124.432 60.4662 124.201 60.0623 123.797 59.9758C123.421 59.8892 123.046 60.1489 122.96 60.5243C120.708 70.3972 116.926 79.9811 111.759 88.9592C111.593 89.2481 110.265 91.5573 110.431 91.2684C110.245 91.6404 110.362 91.9866 110.691 92.2497L110.72 92.2786L114.097 94.1839L97.7868 105.529C97.8063 105.24 99.2348 83.8413 99.1436 85.2059L103.358 87.6021C103.727 87.8235 104.177 87.6687 104.34 87.342C104.369 87.342 104.369 87.3135 104.369 87.3135C104.521 87.0227 105.849 84.4822 105.697 84.7731C112.712 71.2915 115.829 59.3118 115.829 45.9749C116.057 23.5738 99.0999 9.15032 75.0391 23.0249L74.9814 23.0537L74.9238 12.6323C75.3569 12.4015 75.7608 12.1703 76.2228 11.8818C84.912 6.88746 92.6775 4.66477 99.346 5.35758C102.666 5.71275 107.311 6.89564 110.662 8.70622C120.968 13.989 125.933 24.9586 125.413 41.4715C125.413 41.8754 125.731 42.1931 126.135 42.222C126.511 42.222 126.857 41.9042 126.857 41.5291C127.348 25.0163 122.556 13.8156 112.597 8.09999ZM96.3154 105.759L91.1773 102.786L92.6206 81.3952C92.9122 81.5656 98.0882 84.5899 97.7588 84.3977L96.3154 105.759ZM114.387 45.9745C114.387 55.7897 112.654 64.8827 108.873 74.3801C106.653 79.9289 104.246 84.3625 103.446 85.9852C103.153 85.816 97.8231 82.7282 98.1631 82.9251L99.1736 80.9909C106.159 67.4809 109.277 55.5296 109.277 42.1927C109.393 33.8209 107.458 27.0948 103.446 22.1297C108.634 24.435 114.597 32.9558 114.387 45.9745ZM68.4292 20.1666L68.4003 9.71642L73.4812 12.6608L73.51 23.111L68.4292 20.1666ZM91.5524 4.31816C89.9932 4.57782 88.4056 4.98211 86.76 5.53067C83.1805 6.65663 79.3988 8.3885 75.4439 10.6689C75.0107 10.8997 74.6068 11.1597 74.2025 11.3905L69.1216 8.44618C69.3236 8.33077 69.4971 8.2154 69.699 8.09961C79.4565 2.47057 88.001 0.391716 95.1891 1.92198C98.2781 2.49939 101.136 3.42303 103.676 4.66439C103.128 4.52014 102.55 4.40433 101.973 4.31778C98.7405 3.62536 95.2761 3.62535 91.5524 4.31816Z" fill="#333333"/>
<path d="M74.0283 118.288V118.259C73.9995 118.259 73.9706 118.231 73.9417 118.231L67.5334 114.478C67.3022 114.363 67.0425 114.363 66.8117 114.478L65.5704 115.2C56.5638 120.425 48.2498 121.608 40.3111 118.779C34.9706 113.843 32.3436 106.424 32.4301 96.753C32.4301 83.2719 35.6057 71.2052 42.6784 57.5506L43.6886 55.5876L48.394 58.3011C48.5959 58.4169 48.8848 58.4169 49.0868 58.3011C49.318 58.1857 49.4622 57.9837 49.4622 57.7241L51.0787 34.1104C51.0787 33.8484 50.9414 33.5654 50.7032 33.4465L44.179 29.6646C43.9482 29.5204 43.6594 29.5204 43.4285 29.6935L24.4334 42.8573C24.2314 43.0015 24.0868 43.2327 24.116 43.4924C24.116 43.7232 24.2603 43.954 24.4623 44.0694L28.3306 46.3213L27.3493 48.0532C18.5447 63.3819 13.7816 80.0098 13.1461 97.5036C12.6264 114.333 17.563 125.881 27.7532 131.827L34.0465 135.465C34.1331 135.523 34.2197 135.58 34.3351 135.609C37.4529 137.457 41.0901 138.727 45.2184 139.478C54.4293 141.417 64.2545 137.669 72.383 132.982C72.9316 132.665 73.509 132.318 74.0864 131.972C74.3172 131.827 74.433 131.596 74.433 131.337L74.4042 118.895C74.4038 118.635 74.2595 118.432 74.0283 118.288ZM66.292 116.47L67.1579 115.95L72.2676 118.895L72.0945 118.981C69.9007 120.251 67.7353 121.29 65.628 122.099C59.4505 124.408 53.5614 124.697 47.9324 122.936C46.2435 122.439 45.1693 121.942 43.602 121.204C50.7902 122.676 58.2668 121.088 66.292 116.47ZM26.1656 43.4054L43.8617 31.1368L49.0003 34.1389L31.3619 46.4079H31.333C31.041 46.2379 25.8358 43.2136 26.1656 43.4054ZM14.5898 97.5324C15.6511 68.7396 29.4632 47.3896 29.6012 47.0715C29.9451 47.2688 35.1963 50.2817 34.884 50.1028C34.3534 51.0591 33.4142 52.3208 30.756 57.6371C23.7258 71.8547 20.1382 86.6646 19.6418 101.285C19.5366 104.137 19.6762 108.109 20.0461 111.129C20.6313 116.779 22.9994 124.421 26.4834 128.68C26.7723 129.114 27.1185 129.547 27.5228 129.979C18.4582 124.177 14.099 113.265 14.5898 97.5324ZM71.6614 131.741C61.6443 137.485 52.8686 139.621 45.4785 138.062C41.437 137.312 37.886 136.042 34.8263 134.223C33.4298 133.408 32.0687 132.434 30.7272 131.163C30.6695 131.134 30.6118 131.105 30.5829 131.047C26.7664 127.997 22.5659 120.491 21.5183 111.215C21.1234 108.19 20.9689 105.014 21.0851 101.342C21.5943 87.0915 24.9738 72.7628 31.6796 59.022C34.6969 52.9863 35.8108 51.4599 36.5005 50.2174C36.5293 50.1597 36.5581 50.102 36.5581 50.0443C36.6498 49.6759 36.4654 49.3339 36.2116 49.2072L32.7187 47.1865L49.5195 35.5241L48.1051 56.4823L43.7747 53.9419C43.6016 53.8553 43.3993 53.8261 43.1973 53.8842C42.9954 53.9419 42.8508 54.0861 42.7642 54.2596L41.4074 56.8866C34.1904 70.7432 30.986 83.0407 30.986 96.7242C30.8995 105.356 32.9202 112.284 37.0482 117.365C42.4663 124.22 51.614 126.41 59.594 125.188C61.7301 124.842 63.895 124.293 66.0893 123.456C66.0893 123.456 66.0893 123.456 66.1181 123.456C68.0979 122.718 70.4664 121.624 72.8443 120.251L72.9601 120.194L72.9889 130.962C72.5561 131.221 72.0945 131.481 71.6614 131.741Z" fill="#333333"/>
</svg>
