<svg width="140" height="140" viewBox="0 0 140 140" fill="none" xmlns="http://www.w3.org/2000/svg">
<path d="M12.1468 24.0503C14.6747 21.2381 17.4946 18.855 20.4709 17.1363C31.3993 10.8269 40.3134 15.9067 40.3489 28.4641C40.3844 41.0487 31.5284 56.3608 20.6 62.6703C9.64786 68.9934 0.757906 63.9272 0.722028 51.3425C0.0922123 42.8297 5.0305 29.4257 12.1468 24.0503Z" fill="#F5F5F5"/>
<path d="M135.791 108.255C134.788 111.194 130.017 111.678 128.461 109.016C130.57 111.367 130.017 115.343 127.77 117.521C125.488 119.699 121.996 120.253 118.919 119.596C115.842 118.974 113.111 117.314 110.518 115.551L110.483 115.516C111.935 119.976 108.305 125.301 103.637 125.577C101.528 125.715 99.4537 124.955 97.4484 124.195C86.7306 120.184 76.0472 116.173 65.3641 112.128C64.1883 113.822 61.9412 114.064 59.7975 113.788C59.3136 113.753 58.8643 113.684 58.4147 113.58C56.9628 113.269 55.5448 112.923 54.1276 112.508C53.2287 112.267 52.3641 111.99 51.5 111.679C51.3962 111.679 51.3272 111.644 51.2235 111.61C50.2555 111.264 49.2872 110.883 48.3536 110.503C48.1118 110.399 47.9043 110.33 47.6622 110.192C46.6595 109.777 45.6916 109.328 44.7233 108.843C33.6943 103.484 24.2904 94.5991 18.5507 83.7081C17.3058 81.3226 16.1652 78.764 15.8887 76.102C15.439 71.8493 17.0641 67.4238 15.8196 63.3442C15.4741 62.2725 14.9898 61.3042 14.4364 60.371C13.3647 58.5732 12.0162 56.9482 10.9102 55.2194C10.3915 54.4242 9.90756 53.5943 9.56165 52.6954C9.35418 52.2115 9.21612 51.6928 9.112 51.1394C9.07729 50.8629 9.04297 50.5864 9.04297 50.2752C9.35417 40.9403 15.8887 29.946 23.8754 25.2784C26.0534 24.0683 28.1625 23.3769 29.995 23.3421H30.0987C30.4099 23.3421 30.7211 23.3769 31.0323 23.4116C31.0666 23.4116 31.136 23.4116 31.1704 23.4463C33.8671 23.6537 36.46 24.6907 38.984 25.6933C46.7633 28.805 54.5769 31.9513 61.63 36.4805C73.3852 44.0524 82.4436 55.2541 94.026 63.1371C103.672 69.7406 114.943 73.9587 123.656 81.7032C125.938 83.7432 128.185 86.3705 128.081 89.4478C127.978 91.9371 125.316 94.2192 123.103 93.8386C126.872 95.7054 130.294 98.2294 133.164 101.272C134.927 103.173 136.621 105.766 135.791 108.255Z" fill="white"/>
<path d="M122.743 93.7337C122.743 93.7337 117.81 87.2725 92.6914 78.0257L122.743 93.7337Z" fill="white"/>
<path d="M59.7821 113.802C59.3223 113.767 58.8621 113.696 58.4023 113.59C53.6617 112.599 49.0623 111.008 44.7109 108.849C44.8876 108.283 45.1707 107.788 45.4184 107.258C45.7011 106.656 46.0552 106.054 46.5501 105.595C46.9393 105.205 47.3995 104.958 47.8592 104.746C50.1585 103.755 52.8475 104.18 55.2178 104.993C56.1377 105.312 57.0222 105.666 57.8357 106.232C58.6141 106.798 59.2864 107.576 59.5695 108.496C59.7462 109.026 59.7462 109.628 59.7817 110.194C59.8526 111.397 59.9236 112.599 59.7821 113.802Z" fill="white"/>
<path d="M128.463 66.133V76.4413C128.448 81.972 124.814 87.4945 117.555 91.7133C102.943 100.205 79.1616 100.205 64.454 91.7133C57.0541 87.4411 53.3591 81.832 53.3751 76.2315V65.9232C53.3591 71.5237 57.0541 77.1327 64.454 81.405C79.1616 89.8964 102.943 89.8964 117.555 81.405C124.814 77.1866 128.448 71.6641 128.463 66.133Z" fill="#F5F5F5"/>
<path d="M117.382 50.6466C132.09 59.138 132.167 72.9132 117.555 81.4046C102.943 89.896 79.1617 89.8964 64.454 81.4046C49.7463 72.9132 49.6742 59.1412 64.2859 50.6498C78.8984 42.1584 102.674 42.1552 117.382 50.6466Z" fill="white"/>
<path d="M90.8047 49.3002C99.9649 49.3002 108.512 51.3226 114.873 54.9946C120.315 58.1367 123.439 62.1788 123.444 66.0864C123.449 70.0104 120.463 73.909 115.033 77.0639" fill="white"/>
<path d="M101.02 81.9155C97.8389 82.4673 94.4843 82.7532 91.0393 82.7532C81.8759 82.7532 73.3253 80.73 66.9631 77.0568C61.5233 73.9166 58.4004 69.8757 58.3945 65.9704C58.3887 62.0457 61.3763 58.1471 66.8071 54.9906" fill="white"/>
<path d="M128.725 75.5739C128.407 75.7471 128.09 75.9495 127.743 76.1226V76.4401C127.743 81.58 124.423 86.4598 118.417 90.3003V86.4598C118.417 86.0558 118.099 85.7379 117.695 85.7379C117.319 85.7379 116.973 86.0558 116.973 86.4598V91.1953C113.45 93.2165 109.379 94.7472 105.047 95.7865V91.5127C105.047 91.1087 104.73 90.7909 104.325 90.7909C103.921 90.7909 103.604 91.1087 103.604 91.5127V96.0751C99.7342 96.8835 95.6917 97.3168 91.6492 97.3456V92.8991C91.6492 92.5236 91.3314 92.1773 90.9273 92.1773C90.5229 92.1773 90.2055 92.5236 90.2055 92.8991V97.3456C86.1341 97.2879 82.1205 96.8547 78.2511 96.0174V91.455C78.2511 91.0506 77.9336 90.7332 77.5292 90.7332C77.1248 90.7332 76.8074 91.0506 76.8074 91.455V95.7284C72.4759 94.6887 68.4045 93.1584 64.853 91.1083V86.344C64.853 85.9684 64.5355 85.6221 64.1311 85.6221C63.7556 85.6221 63.4093 85.9688 63.4093 86.344V90.2133C57.4032 86.3151 54.0825 81.406 54.1114 76.2376V72.1374C56.0461 76.2377 60.1463 79.7607 64.1023 82.0417C71.552 86.3151 81.2832 88.481 91.0432 88.481C93.844 88.481 96.6159 88.279 99.3594 87.9323C106.174 87.0373 112.642 85.1027 117.926 82.0417C119.688 81.0024 121.478 79.7319 123.066 78.2882C121.738 78.7792 120.381 79.2409 118.995 79.6453C118.417 80.0497 117.811 80.4249 117.204 80.7715C102.796 89.1456 79.32 89.1456 64.8245 80.7715C59.194 77.5375 54.1118 72.3691 54.1118 65.9875C54.0829 60.761 57.4036 55.8523 63.4674 51.9829V50.308C56.5082 54.4659 52.6969 60.0103 52.6681 65.9005V65.9293C52.6681 65.9582 52.6681 65.9582 52.6681 65.9871V76.2376C52.6104 91.0795 73.718 98.7316 90.87 98.7893C90.87 98.7893 90.8989 98.7893 90.9277 98.7893C90.9277 98.7893 90.9566 98.7893 90.9855 98.7893C90.9855 98.7893 91.0143 98.7893 91.0432 98.7893C99.9944 98.7893 110.188 96.8258 117.926 92.3212C125.174 88.1343 129.187 82.4746 129.187 76.4397V75.2845C129.043 75.4004 128.869 75.4869 128.725 75.5739Z" fill="#333333"/>
<path d="M90.8039 50.0206C99.8401 50.0206 108.259 52.0087 114.512 55.618C119.724 58.6267 122.716 62.4422 122.722 66.0866C122.728 69.7411 119.868 73.4182 114.671 76.4382C114.325 76.6382 114.208 77.0812 114.409 77.4252C114.609 77.7711 115.052 77.8865 115.396 77.6873C121.057 74.3966 124.171 70.2753 124.166 66.0834C124.16 61.9115 120.905 57.6408 115.234 54.3685C108.765 50.6337 100.09 48.5765 90.8039 48.5765C90.4049 48.5765 90.082 48.8994 90.082 49.2984C90.082 49.6977 90.4049 50.0206 90.8039 50.0206Z" fill="#333333"/>
<path d="M101.727 82.0418C101.698 82.3303 101.466 82.5616 101.149 82.6193C97.9149 83.1969 94.5076 83.4855 91.0427 83.4855C81.7448 83.4855 73.0822 81.4065 66.614 77.6814C60.9258 74.4185 57.6917 70.1451 57.6917 65.9579C57.6629 62.5795 59.6841 59.2588 63.4669 56.3421V58.1903C60.6372 60.6159 59.1065 63.3013 59.1354 65.9579C59.1354 69.596 62.1094 73.4076 67.3359 76.4397C73.5732 80.049 82.0045 82.0414 91.0427 82.0414C92.8908 82.0414 94.71 81.9548 96.5 81.7812C98.2327 81.9259 99.965 82.0121 101.669 82.0121C101.698 82.0129 101.698 82.0418 101.727 82.0418Z" fill="#333333"/>
<path d="M139.28 49.3742V59.6825C139.264 65.2132 135.631 70.7357 128.371 74.9545C113.76 83.4459 89.978 83.4463 75.2704 74.9545C67.8705 70.6823 64.1755 65.0732 64.1915 59.4727V49.1644C64.1755 54.7649 67.8705 60.374 75.2704 64.6462C89.978 73.1376 113.759 73.1376 128.371 64.6462C135.631 60.4274 139.264 54.9049 139.28 49.3742Z" fill="#F5F5F5"/>
<path d="M128.198 33.8877C142.906 42.3791 142.984 56.1543 128.371 64.6457C113.759 73.1371 89.9781 73.1375 75.2704 64.6457C60.5627 56.1543 60.4906 42.3822 75.1023 33.8908C89.7144 25.3998 113.491 25.3963 128.198 33.8877Z" fill="white"/>
<path d="M101.621 32.5415C110.781 32.5415 119.329 34.5639 125.689 38.2359C131.131 41.378 134.255 45.4201 134.261 49.3277C134.266 53.2517 131.279 57.1503 125.85 60.3052" fill="white"/>
<path d="M111.836 65.1557C108.655 65.7075 105.3 65.9934 101.856 65.9934C92.6923 65.9934 84.1417 63.9702 77.7796 60.297C72.3397 57.1569 69.2168 53.1159 69.2109 49.2107C69.2051 45.2859 72.1927 41.3873 77.6236 38.2308" fill="white"/>
<path d="M140 49.3184C139.991 43.2192 135.928 37.5173 128.558 33.2634C113.675 24.6683 89.5317 24.6714 74.7386 33.2661C71.5549 35.117 69.0407 37.2537 67.1738 39.5666C65.4934 38.2766 63.8056 37.013 62.0249 35.8681C55.3547 31.5943 48.107 28.5626 40.917 25.6752C40.3394 20.7665 38.2604 17.0415 34.9109 15.1068C30.8972 12.8254 25.6419 13.3164 20.1268 16.5216C17.1524 18.2254 14.2939 20.593 11.6085 23.5674C11.3484 23.8559 11.3776 24.3181 11.6662 24.5778C11.9837 24.8668 12.4169 24.8379 12.7055 24.5201C15.2466 21.69 17.9897 19.409 20.8483 17.7633C25.9016 14.8467 30.6371 14.3272 34.1887 16.3773C36.9606 17.9653 38.751 20.9685 39.3574 25.0399C39.2997 25.0399 39.242 25.0111 39.1843 24.9822C36.6432 24.0006 34.0155 22.9609 31.2435 22.7301C31.1028 22.6595 30.2616 22.6142 29.973 22.6142C28.0672 22.6431 25.8439 23.365 23.5048 24.6644C15.3043 29.4576 8.63413 40.6902 8.3163 50.2766C8.3163 53.9705 11.8674 57.4393 13.8025 60.7296C14.3177 61.6125 15.1312 63.1592 15.2751 64.1657C12.1276 65.0318 9.24015 64.801 6.90106 63.4439C3.40724 61.4515 1.47257 57.1492 1.44371 51.3451C1.44371 50.9407 1.12626 50.6233 0.721856 50.6233C0.317838 50.6233 0 50.9407 0 51.3451C0.0288584 57.669 2.22328 62.4334 6.17922 64.7144C7.82493 65.6383 9.70229 66.1292 11.6947 66.1292C12.9075 66.1292 14.2069 65.9561 15.5059 65.5805C15.6791 67.1974 15.5059 68.8724 15.3328 70.6046C15.1596 72.4239 14.9865 74.3297 15.1596 76.1774C15.4775 79.0648 16.7192 81.7506 17.9028 84.0316C23.6436 94.9366 33.0464 103.967 44.3804 109.484C44.3858 109.487 44.3866 109.493 44.3921 109.496C48.2415 111.404 56.1804 114.256 59.728 114.52C59.7463 114.522 59.7646 114.522 59.7845 114.522C59.8052 114.522 59.8188 114.503 59.8391 114.502C62.4309 114.814 64.4124 114.3 65.6049 112.994C76.1156 116.979 86.6548 120.906 97.1944 124.862C98.8978 125.526 101.006 126.305 103.143 126.305H103.691C106.088 126.161 108.427 124.746 109.957 122.523C111.083 120.848 111.632 118.913 111.516 117.065C113.74 118.509 116.136 119.779 118.764 120.299C122.373 121.079 126.012 120.213 128.264 118.047C130.112 116.256 130.834 113.6 130.343 111.29C130.979 111.463 131.672 111.521 132.393 111.463C134.357 111.261 135.916 110.106 136.465 108.489C136.638 107.969 136.725 107.42 136.725 106.872C136.725 104.995 135.714 102.945 133.693 100.779C131.238 98.1804 128.466 95.986 125.348 94.2245C125.809 94.0225 126.272 93.7624 126.676 93.4161C127.947 92.3768 128.755 90.9038 128.813 89.4601C128.871 87.2946 127.918 85.4176 126.705 83.8585C126.503 84.234 126.301 84.6092 125.983 84.927C125.925 84.9847 125.839 85.0136 125.752 85.0713C126.849 86.5727 127.398 88.0168 127.369 89.4028C127.311 90.4421 126.734 91.5106 125.781 92.2902C124.972 92.9543 123.99 93.2722 123.211 93.1279C123.201 93.1259 123.193 93.1345 123.183 93.1333C122.881 92.7843 121.968 91.8218 119.833 90.2689C119.4 90.5579 118.966 90.8465 118.504 91.1355C121.219 93.0413 122.114 94.1094 122.171 94.1675C122.316 94.3696 122.518 94.4561 122.749 94.4561C122.749 94.4561 122.75 94.4557 122.751 94.4557C122.763 94.4632 122.765 94.4784 122.778 94.4854C126.503 96.3335 129.824 98.7876 132.625 101.762C134.155 103.408 135.83 105.833 135.108 108.028C134.675 109.327 133.347 109.905 132.25 110.02C131.355 110.107 130.257 109.905 129.506 109.183C129.38 108.98 129.221 108.797 129.05 108.6C129.046 108.593 129.049 108.584 129.044 108.576C128.842 108.288 124.944 103.263 108.918 95.467C108.225 95.6978 107.503 95.8998 106.782 96.0734C122.644 103.639 127.276 108.732 127.83 109.373C127.832 109.377 127.83 109.381 127.831 109.385C127.976 109.645 128.149 109.876 128.351 110.078C129.622 112.099 129.189 115.16 127.283 117.008C125.348 118.827 122.201 119.549 119.053 118.885C116.295 118.339 113.822 116.933 111.038 115.042C110.377 114.023 104.94 106.569 85.8756 97.8634C84.2007 97.7479 82.5261 97.5459 80.88 97.2858C102.484 106.342 108.927 114.588 109.789 115.76C110.414 117.633 110.011 119.873 108.745 121.714C107.503 123.563 105.568 124.747 103.605 124.862C101.584 124.977 99.5335 124.198 97.7142 123.505C87.1341 119.58 76.6117 115.626 66.1158 111.645C66.601 109.207 66.3989 106.462 65.4505 103.616C64.52 101.036 62.9437 98.5809 60.7653 96.3237C58.6871 94.1313 56.1846 92.4423 53.9497 91.045C48.0259 88.0753 45.3522 86.9596 43.6008 82.9393C43.1032 81.831 42.411 79.7204 43.3598 78.0357C43.5559 77.689 43.4331 77.2491 43.0849 77.0529C42.7409 76.854 42.2983 76.9769 42.1021 77.3279C40.8417 79.5656 41.6751 82.1753 42.3053 83.5765C44.1791 87.883 47.0681 89.2593 53.2434 92.3027C55.4456 93.6828 57.7551 95.2466 59.7221 97.3205C61.7625 99.4354 63.2315 101.718 64.086 104.09C65.0165 106.88 65.1959 109.565 64.6171 111.869C63.8387 112.817 62.4645 113.227 60.536 113.09C60.5871 112.095 60.5602 111.108 60.5033 110.148C60.3129 109.685 61.2516 106.32 55.453 104.31C52.3496 103.244 49.6989 103.166 47.5587 104.09C45.6131 104.985 45.1681 106.103 44.3644 107.836C33.5885 102.41 24.6864 93.7717 19.2022 83.3683C18.0759 81.2312 16.8923 78.6616 16.6033 76.0339C16.4302 74.3013 16.6034 72.5112 16.7765 70.7497C17.2211 66.006 17.207 63.5819 15.0438 60.0081C13.2827 56.9897 9.75961 53.3298 9.75961 50.3059C10.0774 41.1811 16.4298 30.4684 24.2263 25.9061C26.331 24.724 28.5316 23.916 30.9253 24.1157C31.5629 24.4347 31.818 23.5908 38.7218 26.3678C44.6483 28.7412 53.6061 32.1851 61.2446 37.0805C62.9679 38.2033 64.6405 39.4286 66.2909 40.698C64.4619 43.3397 63.4858 46.1935 63.4745 49.1449C63.4745 49.1519 63.4671 49.1558 63.4671 49.1628C63.4671 49.1866 63.4671 49.212 63.4671 49.2377V59.4711C63.4265 74.0641 84.0467 81.9717 101.671 82.0205C101.694 82.0224 101.708 82.0454 101.731 82.0454C101.752 82.0454 101.764 82.0256 101.784 82.0236C101.808 82.0236 101.832 82.0256 101.856 82.0256C110.817 82.0256 120.983 80.0807 128.732 75.578C135.982 71.3651 139.983 65.7213 140 59.6825V49.373C140 49.3695 139.996 49.3676 139.996 49.3641C139.997 49.3489 140 49.3336 140 49.3184ZM48.1476 105.408C49.9298 104.642 52.2334 104.73 54.9827 105.674C59.7077 107.309 58.8907 109.818 59.0631 110.235C59.1173 111.171 59.1668 112.067 59.1255 112.954C57.5328 112.725 54.9784 112.011 53.4337 111.533C51.3875 110.907 49.011 110.099 45.6342 108.472C46.3739 106.875 46.7249 106.067 48.1476 105.408ZM138.556 59.6813C138.542 64.8306 135.223 69.7038 129.238 73.542V69.7003C129.238 69.3013 128.915 68.9784 128.516 68.9784C128.117 68.9784 127.794 69.3013 127.794 69.7003V74.4409C124.26 76.4637 120.195 77.9932 115.849 79.0188V74.7466C115.849 74.3477 115.527 74.0248 115.128 74.0248C114.729 74.0248 114.406 74.3477 114.406 74.7466V79.3152C110.548 80.1186 106.511 80.5491 102.454 80.5865V76.1521C102.454 75.7531 102.131 75.4302 101.732 75.4302C101.333 75.4302 101.01 75.7531 101.01 76.1521V80.5795C96.9561 80.5261 92.9218 80.0866 89.0649 79.2688V74.6955C89.0649 74.2966 88.742 73.9737 88.3431 73.9737C87.9441 73.9737 87.6212 74.2966 87.6212 74.6955V78.9588C83.2819 77.9183 79.2117 76.3872 75.6777 74.3543V69.6004C75.6777 69.2015 75.3548 68.8786 74.9559 68.8786C74.5569 68.8786 74.234 69.2015 74.234 69.6004V73.4417C68.2166 69.5622 64.8971 64.6559 64.9116 59.4731V55.3842C66.8872 59.5031 70.9165 62.9669 74.9079 65.2705C85.4295 71.3464 99.904 72.8813 112.189 70.8823C118.256 69.8953 123.979 68.0327 128.732 65.2705C132.591 63.0274 136.613 59.5503 138.556 55.5125V59.6813ZM128.007 64.021C113.615 72.3876 90.1182 72.3849 75.6297 64.021C65.5503 58.2002 64.924 50.9478 65.0878 51.2367C64.9751 50.5695 64.9139 49.8964 64.9127 49.2182C64.9042 43.6957 68.6519 38.4747 75.4632 34.5156C82.6611 30.3323 92.1329 28.2412 101.618 28.2412C111.099 28.2412 120.595 30.3323 127.837 34.5125C134.741 38.4996 138.549 43.7573 138.556 49.3196C138.565 55.6193 133.57 60.7893 128.007 64.021Z" fill="#094B70"/>
<path d="M126.049 37.6116C119.581 33.8768 110.906 31.8197 101.62 31.8197C101.221 31.8197 100.898 32.1426 100.898 32.5415C100.898 32.9405 101.221 33.2634 101.62 33.2634C110.656 33.2634 119.075 35.2515 125.327 38.8607C130.541 41.871 133.533 45.6862 133.538 49.3293C133.542 52.9854 130.683 56.6609 125.486 59.6798C125.14 59.8798 125.023 60.3228 125.224 60.6668C125.358 60.8981 125.6 61.0264 125.849 61.0264C125.973 61.0264 126.097 60.9955 126.211 60.9293C131.872 57.6413 134.986 53.5201 134.982 49.327C134.976 45.1546 131.719 40.884 126.049 37.6116Z" fill="#094B70"/>
<path d="M111.714 64.4452C100.936 66.312 87.6156 65.1424 78.141 59.6726C72.9298 56.6639 69.9382 52.8499 69.9324 49.2095C69.9269 45.555 72.7874 41.8779 77.9858 38.8563C78.3314 38.6563 78.4483 38.2132 78.2479 37.8693C78.0463 37.521 77.6021 37.4056 77.2609 37.6072C71.5972 40.8994 68.4828 45.0207 68.4883 49.2122C68.4937 53.3815 71.7493 57.6494 77.4188 60.9217C87.235 66.5904 100.925 67.783 111.959 65.8662C112.353 65.7988 112.616 65.4248 112.547 65.0329C112.48 64.6398 112.104 64.3578 111.714 64.4452Z" fill="#094B70"/>
<path d="M114.31 47.4837C110.223 45.1076 105.781 46.4312 101.373 48.0032L94.2719 43.876C95.8946 43.0071 97.6253 42.3208 99.4609 41.8126C99.7436 41.7432 99.9422 41.6734 100.063 41.604C100.421 41.3969 100.585 41.154 100.547 40.8759C100.507 40.5994 100.327 40.3678 100.009 40.1833C99.4133 39.837 98.7348 39.7676 97.9763 39.9762C95.8805 40.5183 93.8082 41.3341 91.7655 42.4202L89.7072 41.2242C89.4482 41.0736 89.1386 40.9976 88.781 40.9976C88.4233 40.998 88.1129 41.0736 87.852 41.2242C87.5939 41.3731 87.4671 41.5494 87.4745 41.7518C87.4819 41.9542 87.6176 42.1305 87.8766 42.281L89.9653 43.4946C86.0004 46.2061 86.2418 49.0889 89.3538 50.8972C93.1565 53.1068 97.7536 51.8269 101.899 50.4296L108.763 54.4191C106.9 55.4014 104.8 56.1525 102.464 56.672C102.207 56.7301 101.974 56.8159 101.773 56.9325C101.414 57.1396 101.242 57.3841 101.26 57.661C101.281 57.9394 101.458 58.1757 101.795 58.3715C102.054 58.522 102.381 58.6176 102.769 58.6578C103.157 58.6983 103.52 58.6788 103.861 58.5981C106.536 57.9734 109.028 57.0768 111.328 55.91L113.447 57.1415C113.726 57.3034 114.027 57.381 114.36 57.3763C114.69 57.3697 114.984 57.2905 115.241 57.1415C115.522 56.9797 115.665 56.8003 115.663 56.6041C115.665 56.4064 115.534 56.2337 115.278 56.0847L113.159 54.8531C117.59 51.9755 117.145 49.131 114.31 47.4837ZM91.8782 49.1977C89.8608 48.0254 90.6977 46.3664 92.5306 44.9851L99.0947 48.7995C96.7798 49.5841 93.9716 50.414 91.8782 49.1977ZM110.594 53.3619L104.178 49.6329C106.415 48.8927 109.522 47.8316 111.427 48.9387C113.496 50.141 113.217 51.6155 110.594 53.3619Z" fill="#094B70"/>
</svg>
