<svg width="94" height="30" viewBox="0 0 94 30" fill="none" xmlns="http://www.w3.org/2000/svg">
<path d="M12.162 29.0928L11.515 24.8679H6.53331L5.85399 29.0928H0.289993L5.62754 0.839111H12.5178L17.8554 29.0928H12.162ZM7.40673 19.4108H10.6416L9.05652 9.24479L7.40673 19.4108Z" fill="#171717"/>
<path d="M27.1061 22.6235V18.6187C27.1061 17.9732 26.8366 17.6505 26.2974 17.6505H23.1919C21.5961 17.6505 20.4638 17.181 19.7953 16.2422C19.1483 15.274 18.8248 13.8951 18.8248 12.1054V6.2962C18.8248 2.65814 20.3991 0.839111 23.5478 0.839111H27.9795C31.1282 0.839111 32.7025 2.65814 32.7025 6.2962V9.68488H27.0414V7.3084C27.0414 6.66294 26.7719 6.34021 26.2327 6.34021H25.2946C24.7555 6.34021 24.4859 6.66294 24.4859 7.3084V11.4892C24.4859 12.1347 24.7555 12.4574 25.2946 12.4574H28.3354C29.9313 12.4574 31.0635 12.9122 31.732 13.8217C32.4221 14.7312 32.7672 16.0662 32.7672 17.8265V23.6357C32.7672 27.2737 31.1929 29.0928 28.0442 29.0928H23.6448C20.4746 29.0928 18.8895 27.2737 18.8895 23.6357V20.247H24.5506V22.6235C24.5506 23.2689 24.8201 23.5917 25.3593 23.5917H26.2974C26.8366 23.5917 27.1061 23.2689 27.1061 22.6235Z" fill="#171717"/>
<path d="M47.5574 0.839111V6.34021H43.5461V29.0928H37.8851V6.34021H33.9062V0.839111H47.5574Z" fill="#171717"/>
<path d="M53.6597 0.839111H58.4473C61.6175 0.839111 63.2026 2.65814 63.2026 6.2962V23.6357C63.2026 27.2737 61.6175 29.0928 58.4473 29.0928H53.6597C50.4895 29.0928 48.9044 27.2737 48.9044 23.6357V6.2962C48.9044 2.65814 50.4895 0.839111 53.6597 0.839111ZM57.5415 22.6235V7.3084C57.5415 6.66294 57.272 6.34021 56.7328 6.34021H55.3742C54.835 6.34021 54.5654 6.66294 54.5654 7.3084V22.6235C54.5654 23.2689 54.835 23.5917 55.3742 23.5917H56.7328C57.272 23.5917 57.5415 23.2689 57.5415 22.6235Z" fill="#171717"/>
<path d="M71.3423 19.0588V29.0928H65.6813V0.839111H75.2889C78.4591 0.839111 80.0442 2.65814 80.0442 6.2962V13.6017C80.0442 16.3889 79.1168 18.1052 77.2622 18.7507L81.0793 29.0928H74.9978L71.6982 19.0588H71.3423ZM73.5744 6.34021H71.3423V13.8217H73.5744C74.1135 13.8217 74.3831 13.499 74.3831 12.8535V7.3084C74.3831 6.66294 74.1135 6.34021 73.5744 6.34021Z" fill="#171717"/>
<path d="M83.8492 0.839111L83.8492 29.0928H82.7103V6.34021H82.7067V0.839111H83.8492Z" fill="#171717"/>
<path d="M89.8824 4.50931H91.2972C91.4967 4.50931 91.5965 4.39561 91.5965 4.16821V3.18585L89.5831 3.18585V4.16821C89.5831 4.39561 89.6829 4.50931 89.8824 4.50931ZM86.291 4.50931H87.7194C87.9189 4.50931 88.0187 4.39561 88.0187 4.16821V3.18585L85.9918 3.18585V4.16821C85.9918 4.39561 86.0915 4.50931 86.291 4.50931ZM93.1609 0.839112V4.8504C93.1609 6.1875 92.5986 6.85605 91.474 6.85605H90.3585C89.5695 6.85605 89.0571 6.63775 88.8213 6.20114C88.7125 6.45583 88.5447 6.62865 88.318 6.71961C88.1003 6.81057 87.8011 6.85605 87.4202 6.85605H86.1142C84.9896 6.85605 84.4273 6.1875 84.4273 4.8504V0.839111L93.1609 0.839112Z" fill="#094B70"/>
<path d="M84.4273 12.3357L85.7333 12.0629V9.96172L84.4273 9.6752V7.32846L93.1609 9.57969V12.4858L84.4273 14.7371V12.3357ZM87.4202 10.3301V11.6945L90.5626 11.0259L87.4202 10.3301Z" fill="#094B70"/>
<path d="M93.1609 19.28V21.4631H84.4273V19.4165L89.0118 17.4654H84.4273V15.2824H93.1609V17.329L88.4948 19.28H93.1609Z" fill="#094B70"/>
<path d="M88.8893 27.4418L84.4273 29.1609V26.5959L88.8893 24.9586L93.1609 26.5823V29.1473L88.8893 27.4418ZM84.4273 22.5573H93.1609V24.945H84.4273V22.5573Z" fill="#094B70"/>
</svg>
