<svg width="170" height="32" viewBox="0 0 170 32" fill="none" xmlns="http://www.w3.org/2000/svg">
<path d="M50.404 30.0928L49.757 25.8679H44.7753L44.0959 30.0928H38.532L43.8695 1.83911H50.7598L56.0973 30.0928H50.404ZM45.6487 20.4108H48.8836L47.2985 10.2448L45.6487 20.4108Z" fill="white"/>
<path d="M65.3481 23.6235V19.6187C65.3481 18.9732 65.0785 18.6505 64.5394 18.6505H61.4339C59.838 18.6505 58.7058 18.181 58.0373 17.2422C57.3903 16.274 57.0668 14.8951 57.0668 13.1054V7.2962C57.0668 3.65814 58.6411 1.83911 61.7897 1.83911H66.2215C69.3701 1.83911 70.9444 3.65814 70.9444 7.2962V10.6849H65.2834V8.3084C65.2834 7.66294 65.0138 7.34021 64.4747 7.34021H63.5366C62.9974 7.34021 62.7278 7.66294 62.7278 8.3084V12.4892C62.7278 13.1347 62.9974 13.4574 63.5366 13.4574H66.5773C68.1732 13.4574 69.3054 13.9122 69.974 14.8217C70.6641 15.7312 71.0091 17.0662 71.0091 18.8265V24.6357C71.0091 28.2737 69.4348 30.0928 66.2862 30.0928H61.8868C58.7166 30.0928 57.1315 28.2737 57.1315 24.6357V21.247H62.7925V23.6235C62.7925 24.2689 63.0621 24.5917 63.6013 24.5917H64.5394C65.0785 24.5917 65.3481 24.2689 65.3481 23.6235Z" fill="white"/>
<path d="M85.7993 1.83911V7.34021H81.7881V30.0928H76.1271V7.34021H72.1482V1.83911H85.7993Z" fill="white"/>
<path d="M91.9016 1.83911H96.6893C99.8594 1.83911 101.445 3.65814 101.445 7.2962V24.6357C101.445 28.2737 99.8594 30.0928 96.6893 30.0928H91.9016C88.7315 30.0928 87.1464 28.2737 87.1464 24.6357V7.2962C87.1464 3.65814 88.7315 1.83911 91.9016 1.83911ZM95.7835 23.6235V8.3084C95.7835 7.66294 95.5139 7.34021 94.9748 7.34021H93.6161C93.077 7.34021 92.8074 7.66294 92.8074 8.3084V23.6235C92.8074 24.2689 93.077 24.5917 93.6161 24.5917H94.9748C95.5139 24.5917 95.7835 24.2689 95.7835 23.6235Z" fill="white"/>
<path d="M109.584 20.0588V30.0928H103.923V1.83911H113.531C116.701 1.83911 118.286 3.65814 118.286 7.2962V14.6017C118.286 17.3889 117.359 19.1052 115.504 19.7507L119.321 30.0928H113.24L109.94 20.0588H109.584ZM111.816 7.34021H109.584V14.8217H111.816C112.356 14.8217 112.625 14.499 112.625 13.8535V8.3084C112.625 7.66294 112.356 7.34021 111.816 7.34021Z" fill="white"/>
<path d="M122.119 1.83911L122.119 30.0928H120.95V7.34021L120.95 1.83911H122.119Z" fill="white"/>
<path d="M128.19 5.50931H129.604C129.804 5.50931 129.904 5.39561 129.904 5.16821V4.18585L127.89 4.18585V5.16821C127.89 5.39561 127.99 5.50931 128.19 5.50931ZM124.598 5.50931H126.027C126.226 5.50931 126.326 5.39561 126.326 5.16821V4.18585L124.299 4.18585V5.16821C124.299 5.39561 124.399 5.50931 124.598 5.50931ZM131.468 1.83911V5.8504C131.468 7.1875 130.906 7.85605 129.781 7.85605H128.666C127.877 7.85605 127.364 7.63775 127.128 7.20114C127.02 7.45583 126.852 7.62865 126.625 7.71961C126.407 7.81057 126.108 7.85605 125.727 7.85605H124.421C123.297 7.85605 122.734 7.1875 122.734 5.8504V1.83911L131.468 1.83911Z" fill="#094B70"/>
<path d="M122.734 13.3357L124.04 13.0629V10.9617L122.734 10.6752V8.32846L131.468 10.5797V13.4858L122.734 15.7371V13.3357ZM125.727 11.3301V12.6945L128.87 12.0259L125.727 11.3301Z" fill="#094B70"/>
<path d="M131.468 20.28V22.4631H122.734V20.4165L127.319 18.4654H122.734V16.2824H131.468V18.329L126.802 20.28H131.468Z" fill="#094B70"/>
<path d="M127.196 28.4418L122.734 30.1609V27.5959L127.196 25.9586L131.468 27.5823V30.1473L127.196 28.4418ZM122.734 23.5573H131.468V25.945H122.734V23.5573Z" fill="#094B70"/>
</svg>
