<svg width="36" height="24" viewBox="0 0 36 24" fill="none" xmlns="http://www.w3.org/2000/svg">
<g id="Payment method icon">
<rect x="0.700009" y="0.3" width="34.2" height="23.4" rx="3.3" fill="white"/>
<rect x="0.700009" y="0.3" width="34.2" height="23.4" rx="3.3" stroke="white" stroke-width="0.6"/>
<path id="Bitcoin" fill-rule="evenodd" clip-rule="evenodd" d="M25.27 11.935C25.27 16.3174 21.7174 19.87 17.335 19.87C12.9526 19.87 9.40001 16.3174 9.40001 11.935C9.40001 7.55262 12.9526 4 17.335 4C21.7174 4 25.27 7.55262 25.27 11.935ZM19.2365 8.98682C20.3403 9.36586 21.1478 9.93343 20.9894 10.9897C20.8743 11.7631 20.4439 12.1372 19.8721 12.2682C20.6566 12.675 20.924 13.4471 20.6756 14.3807C20.2039 15.7242 19.0826 15.8373 17.5913 15.5565L17.2292 17.0007L16.355 16.7834L16.7122 15.3585C16.4855 15.3025 16.2539 15.2424 16.0153 15.1784L15.6567 16.6103L14.7835 16.393L15.1452 14.9458L13.3844 14.5032L13.8187 13.506C13.8187 13.506 14.4633 13.6762 14.4543 13.6638C14.7019 13.7248 14.8119 13.5641 14.8553 13.4574L15.8365 9.53752C15.8475 9.35247 15.7832 9.11929 15.4291 9.03098C15.4425 9.02155 14.794 8.87371 14.794 8.87371L15.0266 7.94347L16.7899 8.37857L17.1485 6.94775L18.0222 7.16506L17.671 8.5676C17.9061 8.62068 18.1422 8.67476 18.3718 8.73181L18.7205 7.3382L19.5947 7.55551L19.2365 8.98682ZM17.1464 11.3739C17.7418 11.5317 19.0376 11.8753 19.2634 10.9746C19.4938 10.053 18.235 9.77468 17.6186 9.63841C17.5488 9.62297 17.4872 9.60935 17.4369 9.59682L17.0016 11.3362C17.043 11.3465 17.0916 11.3594 17.1461 11.3738L17.1462 11.3738L17.1464 11.3739ZM16.4684 14.1743C17.1816 14.3621 18.7415 14.773 18.9897 13.7805C19.2437 12.7657 17.7313 12.4277 16.9934 12.2627L16.9933 12.2627C16.9109 12.2443 16.8382 12.228 16.7786 12.2132L16.2984 14.1303C16.3471 14.1423 16.4042 14.1573 16.468 14.1741L16.4684 14.1742L16.4684 14.1743Z" fill="#F7931A"/>
</g>
</svg>
