<svg width="19" height="16" viewBox="0 0 19 16" fill="none" xmlns="http://www.w3.org/2000/svg">
<g id="USDT" clip-path="url(#clip0_24_629)">
<path id="Vector" fill-rule="evenodd" clip-rule="evenodd" d="M3.82137 0.142886L0.494938 7.13005C0.48228 7.15604 0.478269 7.1854 0.483491 7.21383C0.488713 7.24226 0.502894 7.26827 0.523962 7.28807L9.50784 15.8968C9.53336 15.9213 9.56735 15.9349 9.60271 15.9349C9.63806 15.9349 9.67205 15.9213 9.69757 15.8968L18.6815 7.2886C18.7025 7.26881 18.7167 7.2428 18.7219 7.21436C18.7271 7.18593 18.7231 7.15658 18.7105 7.13059L15.384 0.143423C15.3733 0.119957 15.356 0.100079 15.3343 0.0861631C15.3126 0.0722476 15.2873 0.0648838 15.2615 0.0649518H3.94498C3.91906 0.0646292 3.89359 0.0718157 3.87165 0.0856442C3.84972 0.0994727 3.83225 0.119353 3.82137 0.142886Z" fill="#50AF95"/>
<path id="Vector_2" fill-rule="evenodd" clip-rule="evenodd" d="M10.7568 7.84791C10.6923 7.85274 10.3591 7.87263 9.61574 7.87263C9.02452 7.87263 8.60475 7.85489 8.45748 7.84791C6.17268 7.7474 4.46727 7.34967 4.46727 6.87347C4.46727 6.39726 6.17268 6.00007 8.45748 5.89795V7.45179C8.6069 7.46254 9.03473 7.4878 9.62595 7.4878C10.3354 7.4878 10.6907 7.45824 10.7546 7.45233V5.89903C13.0346 6.00061 14.7363 6.39834 14.7363 6.87347C14.7363 7.34859 13.0351 7.74632 10.7546 7.84737L10.7568 7.84791ZM10.7568 5.73832V4.34787H13.9386V2.22754H5.27563V4.34787H8.45694V5.73778C5.87116 5.85656 3.92657 6.36878 3.92657 6.98257C3.92657 7.59637 5.87116 8.10804 8.45694 8.22736V12.683H10.7563V8.22575C13.3361 8.10697 15.2775 7.59529 15.2775 6.98204C15.2775 6.36878 13.3377 5.8571 10.7563 5.73778L10.7568 5.73832Z" fill="white"/>
</g>
<defs>
<clipPath id="clip0_24_629">
<rect width="18.2435" height="15.87" fill="white" transform="translate(0.481262 0.0649414)"/>
</clipPath>
</defs>
</svg>
