<svg width="24" height="24" viewBox="0 0 24 24" fill="none" xmlns="http://www.w3.org/2000/svg">
<path d="M0 12.0001C0.269385 28.0014 23.733 27.9987 24 11.9995C23.7306 -4.00126 0.267018 -3.99861 0 12.0001Z" fill="#242424"/>
<path fill-rule="evenodd" clip-rule="evenodd" d="M4.08594 19.9127C4.41685 18.6214 4.77927 17.4048 5.11107 16.1248C2.87277 11.3357 4.73766 5.59885 10.2348 4.30314C24.6426 2.36173 21.6827 24.2664 8.47113 18.9701C8.33195 18.9013 8.13479 18.8823 7.98614 18.918C5.89693 19.4391 4.50727 19.8307 4.08594 19.9127ZM5.92331 18.1098C6.69015 18.0101 8.13455 17.3012 8.68909 17.603C13.193 20.4458 19.5257 16.2778 18.544 10.9698C16.6169 0.968091 1.66882 5.94884 6.2633 15.1098C6.85266 16.1006 6.06505 17.0492 5.92331 18.1098Z" fill="#F5F5F5"/>
<path fill-rule="evenodd" clip-rule="evenodd" d="M14.0804 15.7017C12.5332 16.0765 5.91275 11.598 8.76964 8.51573C9.0653 8.24172 9.43585 8.30843 9.78304 8.3672C10.2081 8.72834 10.3791 9.61711 10.6392 10.1387C10.8998 10.6085 9.8206 11.0975 10.0999 11.5731C10.4233 12.2897 12.4923 14.3763 13.2536 13.8009C13.8833 13.0364 13.9476 12.8125 14.2788 12.9695C15.8724 13.7272 15.997 13.7587 16.0043 13.9386C16.0584 15.2747 14.827 15.7563 14.0804 15.7017Z" fill="#F5F5F5"/>
</svg>
