<svg width="24" height="24" viewBox="0 0 24 24" fill="none" xmlns="http://www.w3.org/2000/svg">
<path d="M24 11.9474C23.4526 27.8922 0.556568 27.9116 0 11.9472C0.490257 -3.9836 23.5117 -3.98126 24 11.9474Z" fill="#242424"/>
<path fill-rule="evenodd" clip-rule="evenodd" d="M15.9211 9.75534C15.7979 10.7202 15.6811 11.6466 15.5613 12.5817L13.2197 12.5819C13.2199 13.6255 13.2205 18.8922 13.2207 19.818C12.3001 20.005 11.2947 20.0496 10.3498 19.9439C10.3499 18.9729 10.3494 13.6576 10.3493 12.5711H8.00047L8 9.75825L10.363 9.75777C10.3758 8.76291 10.3025 7.7561 10.4506 6.76957C10.928 3.89979 13.7051 3.80507 15.9995 4.12775L16 6.64613C12.6759 6.47186 13.2776 7.08619 13.2007 9.75585C13.331 9.75717 15.2593 9.75645 15.9211 9.75534Z" fill="#F5F5F5"/>
</svg>
