<svg width="24" height="24" viewBox="0 0 24 24" fill="none" xmlns="http://www.w3.org/2000/svg">
<path d="M0 12.0001C0.269385 28.0014 23.733 27.9987 24 11.9995C23.7306 -4.00126 0.267018 -3.99861 0 12.0001Z" fill="#242424"/>
<path d="M17.6114 16.4728C16.1536 14.5019 14.6957 12.5309 13.2391 10.5586C13.026 10.7881 12.8142 11.0162 12.6024 11.2457C14.0538 13.2096 15.5064 15.1734 16.9577 17.136H15.1167L11.6165 12.3121C11.4034 12.5416 11.1903 12.7723 10.9785 13.0018C12.2048 14.6892 13.428 16.3774 14.6539 18.0644H18.7882C18.3947 17.5339 18.0024 17.0033 17.6114 16.4728ZM6.98277 5.92843H8.67076C9.71557 7.34048 10.9933 9.06898 12.0271 10.4672C12.2389 10.2377 12.4508 10.0096 12.6626 9.78014C11.4845 8.18719 10.3065 6.59428 9.12838 5H5.17188C6.91687 7.40604 8.66343 9.81186 10.4097 12.2166C10.6216 11.9871 10.8334 11.7577 11.0465 11.5282L6.98277 5.92843Z" fill="#F5F5F5"/>
<path d="M11.6147 12.3122C9.83968 14.2297 8.0666 16.1467 6.29182 18.0645H5C7.01469 15.8861 9.0292 13.7065 11.0446 11.5283L11.6147 12.3122Z" fill="#F5F5F5"/>
<path d="M18.3779 5C16.4516 7.08172 14.526 9.16498 12.5988 11.2457C12.4079 10.9871 12.2157 10.7271 12.0234 10.4672C13.7089 8.64521 15.3942 6.82207 17.0796 5H18.3779Z" fill="#F5F5F5"/>
</svg>
