<svg width="24" height="24" viewBox="0 0 24 24" fill="none" xmlns="http://www.w3.org/2000/svg">
<path d="M11.9999 0C-4.00131 0.269376 -3.99881 23.7329 12.0004 24C28.0012 23.7307 27.9987 0.26706 11.9999 0Z" fill="#242424"/>
<path d="M18.0691 6.59028C18.0164 7.40922 17.5931 11.5709 16.9594 17.4076C16.8671 18.2597 15.9167 18.7336 15.1691 18.3001C8.38413 13.872 7.33667 16.4783 14.2901 9.23124C14.9603 7.69837 11.2218 11.0248 8.10456 13.1877C7.30393 13.7768 6.26925 13.9587 5.31226 13.6783C3.45356 13.1318 0.748302 12.7362 4.26079 11.1666C6.43168 10.2666 14.5027 6.15625 16.9971 5.5634C17.9818 5.37732 18.102 6.0426 18.0691 6.59028Z" fill="#F5F5F5"/>
</svg>
