<svg width="24" height="24" viewBox="0 0 24 24" fill="none" xmlns="http://www.w3.org/2000/svg">
<path d="M0 12.0001C0.269385 28.0014 23.733 27.9987 24 11.9995C23.7306 -4.00126 0.267018 -3.99861 0 12.0001Z" fill="#242424"/>
<path fill-rule="evenodd" clip-rule="evenodd" d="M6.00267 16.9525C3.73991 16.5471 4.27617 8.83454 5.15936 7.59145C6.41044 6.01482 17.5269 6.92928 17.9907 7.01815C20.2885 7.6521 19.5861 14.4256 19.0561 16.0517C18.2429 18.1097 7.82594 17.1219 6.00267 16.9525ZM10.1358 14.2628C11.7002 13.4553 13.2512 12.6553 14.8218 11.8452C13.2488 11.0289 11.6983 10.2239 10.1358 9.41264C10.1358 11.0339 10.1358 12.6379 10.1358 14.2628Z" fill="#F5F5F5"/>
</svg>
